<svg width="41" height="39" viewBox="0 0 41 39" fill="none" xmlns="http://www.w3.org/2000/svg">
<g clip-path="url(#clip0_2273_652)">
<path d="M33.628 38.9484H7.97239C4.011 38.9484 0.800049 35.7375 0.800049 31.7764V7.17202C0.800049 3.21095 4.011 0 7.97239 0H33.628C37.5891 0 40.8 3.21095 40.8 7.17202V31.7764C40.8 35.7375 37.5891 38.9484 33.628 38.9484Z" fill="#D9D9D9" fill-opacity="0.02"/>
<path d="M13.9468 10.3998C14.5975 10.3998 15.2483 10.3995 15.899 10.3998C16.2024 10.4001 16.2033 10.4001 16.3021 10.6761C18.2723 16.19 20.2422 21.7043 22.2121 27.2185C22.2266 27.2595 22.2428 27.3009 22.2511 27.3431C22.2854 27.5139 22.2389 27.5749 22.0614 27.5765C21.6673 27.5797 21.2728 27.5778 20.8787 27.5778C20.178 27.5778 19.4772 27.5778 18.7765 27.5778C18.4773 27.5778 18.4521 27.56 18.3582 27.2854C17.9441 26.0772 17.5277 24.8704 17.1197 23.6603C17.07 23.5131 17.0064 23.4582 16.8447 23.4589C14.9365 23.465 13.0279 23.4647 11.1193 23.4589C10.9657 23.4586 10.9047 23.507 10.8592 23.6496C10.4803 24.8426 10.0926 26.033 9.70786 27.2244C9.60844 27.532 9.56293 27.5659 9.24145 27.5659C8.30928 27.5659 7.37679 27.5659 6.44462 27.5659C6.0589 27.5659 6.01856 27.5107 6.14379 27.1527C7.38001 23.6187 8.6172 20.0853 9.85246 16.5509C10.4031 14.9748 10.9622 13.4016 11.488 11.8174C11.6074 11.4582 11.6138 11.0592 11.6542 10.6767C11.6823 10.4124 11.6781 10.4004 11.9382 10.4004C12.608 10.3995 13.2774 10.3998 13.9468 10.3998ZM11.9127 20.2021C13.281 20.2021 14.6592 20.2021 16.0484 20.2021C15.3406 17.9249 14.6356 15.6578 13.9504 13.4529C13.2832 15.6626 12.5989 17.9285 11.9127 20.2021Z" fill="#8E8E93"/>
<path d="M34.178 21.5035C34.3352 21.5042 34.891 21.5058 34.891 21.5058C34.891 21.5058 34.8871 20.1369 34.8649 19.685C34.8261 18.9184 34.7067 18.1564 34.4572 17.4401C34.0686 16.3253 33.3382 15.3676 32.3079 14.7702C31.7556 14.4493 31.1436 14.2376 30.5149 14.1249C28.278 13.7234 25.8162 14.2582 24.4102 16.1461C23.2857 17.6558 22.9574 19.6395 22.962 21.4787C22.962 21.4787 22.9749 27.1153 28.9601 27.561C28.9601 27.561 31.5829 27.7582 33.7258 26.8261V23.9773C33.7258 23.9773 27.0651 26.002 26.6303 21.479C27.6531 21.4822 28.676 21.4861 29.6986 21.4893C31.1917 21.4938 32.6852 21.4987 34.178 21.5035ZM29.0759 16.6303C30.4264 16.6303 31.5216 17.7219 31.5216 19.0679H26.6306C26.6306 17.7219 27.7254 16.6303 29.0759 16.6303Z" fill="#8E8E93"/>
</g>
<defs>
<clipPath id="clip0_2273_652">
<rect width="40" height="38.9484" fill="white" transform="translate(0.800049)"/>
</clipPath>
</defs>
</svg>
