<svg width="41" height="39" viewBox="0 0 41 39" fill="none" xmlns="http://www.w3.org/2000/svg">
<g clip-path="url(#clip0_1826_3143)">
<path d="M33.628 38.9484H7.97233C4.01094 38.9484 0.799988 35.7375 0.799988 31.7764V7.17202C0.799988 3.21095 4.01094 0 7.97233 0H33.628C37.589 0 40.8 3.21095 40.8 7.17202V31.7764C40.8 35.7375 37.589 38.9484 33.628 38.9484Z" fill="#D9D9D9" fill-opacity="0.05"/>
<path d="M13.9468 10.3997C14.5975 10.3997 15.2483 10.3994 15.899 10.3997C16.2024 10.4001 16.2033 10.4001 16.3021 10.676C18.2723 16.19 20.2422 21.7042 22.2121 27.2185C22.2266 27.2595 22.2428 27.3008 22.2511 27.3431C22.2854 27.5138 22.2389 27.5748 22.0614 27.5764C21.6673 27.5797 21.2728 27.5777 20.8787 27.5777C20.178 27.5777 19.4772 27.5777 18.7765 27.5777C18.4773 27.5777 18.4521 27.56 18.3582 27.2853C17.9441 26.0772 17.5277 24.8703 17.1197 23.6602C17.07 23.5131 17.0064 23.4582 16.8447 23.4588C14.9365 23.465 13.0279 23.4646 11.1193 23.4588C10.9657 23.4585 10.9047 23.5069 10.8592 23.6496C10.4803 24.8426 10.0926 26.0329 9.70786 27.2243C9.60844 27.5319 9.56293 27.5658 9.24145 27.5658C8.30928 27.5658 7.37679 27.5658 6.44462 27.5658C6.0589 27.5658 6.01856 27.5106 6.14379 27.1526C7.38001 23.6186 8.6172 20.0852 9.85246 16.5508C10.4031 14.9747 10.9622 13.4015 11.488 11.8174C11.6074 11.4581 11.6138 11.0592 11.6542 10.6767C11.6823 10.4123 11.6781 10.4004 11.9382 10.4004C12.608 10.3994 13.2774 10.3997 13.9468 10.3997ZM11.9127 20.202C13.281 20.202 14.6592 20.202 16.0484 20.202C15.3406 17.9249 14.6356 15.6577 13.9504 13.4529C13.2832 15.6626 12.5989 17.9284 11.9127 20.202Z" fill="#D9D9D9" fill-opacity="0.75"/>
<path d="M34.1779 21.5035C34.3351 21.5041 34.891 21.5057 34.891 21.5057C34.891 21.5057 34.8871 20.1368 34.8648 19.685C34.8261 18.9184 34.7067 18.1563 34.4571 17.4401C34.0685 16.3252 33.3381 15.3675 32.3078 14.7701C31.7555 14.4493 31.1436 14.2375 30.5148 14.1249C28.278 13.7233 25.8162 14.2582 24.4102 16.1461C23.2856 17.6557 22.9574 19.6395 22.9619 21.4786C22.9619 21.4786 22.9748 27.1152 28.96 27.561C28.96 27.561 31.5829 27.7582 33.7257 26.826V23.9772C33.7257 23.9772 27.065 26.002 26.6302 21.4789C27.6531 21.4822 28.676 21.486 29.6985 21.4893C31.1916 21.4938 32.6851 21.4986 34.1779 21.5035ZM29.0759 16.6302C30.4264 16.6302 31.5215 17.7219 31.5215 19.0678H26.6305C26.6305 17.7219 27.7254 16.6302 29.0759 16.6302Z" fill="#D9D9D9" fill-opacity="0.75"/>
</g>
<defs>
<clipPath id="clip0_1826_3143">
<rect width="40" height="38.9484" fill="white" transform="translate(0.799988)"/>
</clipPath>
</defs>
</svg>
