<?xml version="1.0" encoding="utf-8"?>
<!-- Generator: Adobe Illustrator 24.3.0, SVG Export Plug-In . SVG Version: 6.00 Build 0)  -->
<svg version="1.1" id="Layer_1" xmlns="http://www.w3.org/2000/svg" xmlns:xlink="http://www.w3.org/1999/xlink" x="0px" y="0px"
	 viewBox="0 0 101 98" style="enable-background:new 0 0 101 98;" xml:space="preserve">
<style type="text/css">
	.st0{fill:none;stroke:#000000;stroke-miterlimit:10;}
</style>
<path class="st0" d="M77.7,88.7H23.3c-7.6,0-13.9-6.2-13.9-13.9V23.2c0-7.6,6.2-13.9,13.9-13.9h54.4c7.6,0,13.9,6.2,13.9,13.9v51.6
	C91.6,82.5,85.3,88.7,77.7,88.7z"/>
<path d="M83.8,43c-0.9-2.4-2.4-4.5-4.4-6.1c-2.1-1.7-4.8-2.5-8.2-2.5c-5.1,0-9.1,2-11.8,6c-2.7,3.9-4.1,8.6-4.1,14
	c0,3.3,0.6,6.4,1.6,9.3c1.1,2.9,2.9,5.4,5.4,7.2c2.5,1.8,5.8,2.7,9.9,2.7c3.8,0,6.9-0.6,9.3-1.8h0.1c0.3-0.2,0.6-0.4,0.7-0.7
	c0.2-0.3,0.2-0.6,0.2-1v-5.6c0-0.8-0.5-1.1-0.7-1.2c-0.2-0.1-0.4-0.1-0.6-0.1s-0.4,0.1-0.6,0.2c-2.1,0.9-4.4,1.3-6.8,1.3
	c-3.1,0-5.3-0.8-6.6-2.4c-1.2-1.5-1.9-3.3-2.1-5.7l10.6,0.1c4.1,0,6.5-0.1,7.5-0.3c0.4-0.1,0.7-0.2,0.9-0.4l0.1-0.1
	c0.2-0.2,0.4-0.5,0.4-0.9c0.3-1.1,0.4-2.7,0.4-4.9C85.1,47.8,84.7,45.4,83.8,43z M65.5,48.5c0.3-1.4,0.7-2.7,1.5-3.8
	c0.8-1.2,2.1-1.8,3.9-1.8c1.3,0,2.2,0.3,2.9,0.9c0.7,0.7,1.2,1.5,1.5,2.4s0.4,1.7,0.4,2.4L65.5,48.5L65.5,48.5z"/>
<path d="M41.1,23.5c-0.1-0.3-0.2-0.6-0.4-0.8l0,0c-0.4-0.3-0.8-0.3-1-0.3h-9.3c-0.6,0-1.3,0.4-1.3,1.4C29,24.9,29,25.6,28.9,26
	c0,0.4-0.1,0.7-0.2,1v0.1L16.1,71c-0.2,0.6-0.1,1,0.2,1.4c0.2,0.2,0.5,0.5,1.2,0.5H24c0.5,0,0.8-0.1,1.1-0.3
	c0.2-0.2,0.4-0.4,0.5-0.9l3.3-12.5h12.7L45,71.8v0.1c0.3,0.7,0.8,1,1.6,1h7.3c0.6,0,0.9-0.3,1.1-0.5c0.2-0.2,0.4-0.6,0.2-1.3
	L41.1,23.5z M31.1,50.1c0.2-0.8,0.4-1.6,0.6-2.4c1.4-4.9,2.5-9.4,3.4-13.4c0.2,0.8,0.4,1.7,0.7,2.7c0.6,2.4,1.3,5,2,7.7
	c0.6,2,1,3.9,1.4,5.4H31.1L31.1,50.1z"/>
</svg>
