<?xml version="1.0" encoding="utf-8"?>
<!-- Generator: Adobe Illustrator 24.3.0, SVG Export Plug-In . SVG Version: 6.00 Build 0)  -->
<svg version="1.1" id="Layer_1" xmlns="http://www.w3.org/2000/svg" xmlns:xlink="http://www.w3.org/1999/xlink" x="0px" y="0px"
	 viewBox="0 0 101 98" style="enable-background:new 0 0 101 98;" xml:space="preserve">
<style type="text/css">
	.st0{fill:none;stroke:#000000;stroke-miterlimit:10;}
</style>
<path class="st0" d="M77.7,88.7H23.3c-7.6,0-13.9-6.2-13.9-13.9V23.2c0-7.6,6.2-13.9,13.9-13.9h54.5c7.6,0,13.9,6.2,13.9,13.9v51.6
	C91.6,82.5,85.4,88.7,77.7,88.7z"/>
<path d="M78.8,35c-0.1,0-0.1,0-0.2,0H71c-0.6,0-1,0.3-1.2,0.5s-0.4,0.6-0.4,1.1l0.1,39c0,0.9,0.6,1.5,1.5,1.6l0,0h7.7
	c0.8,0,1.2-0.4,1.4-0.7c0.1-0.2,0.2-0.5,0.2-0.9V36.5C80.3,35.4,79.5,35,78.8,35z"/>
<path d="M74.7,31.3L74.7,31.3c1.8,0,3.2-0.5,4.4-1.6c1.2-1.1,1.8-2.6,1.8-4.5c0-2.5-1-5.5-5.9-6h-0.1h-0.1c-1.7,0-3.1,0.5-4.3,1.6
	c-1.2,1.1-1.8,2.6-1.8,4.4C68.8,29,70.9,31.1,74.7,31.3z"/>
<path d="M48.1,21.8c-0.1-0.4-0.2-0.6-0.4-0.8c-0.4-0.4-0.9-0.4-1.1-0.4H36.2c-0.6,0-1.3,0.3-1.4,1.3l0,0l0,0c0,1.1-0.1,2-0.2,2.5
	c-0.1,0.5-0.2,0.9-0.3,1.4L20.2,75.2v0.1c-0.1,0.4,0,0.8,0.1,1.1c0.1,0.3,0.5,0.8,1.4,0.8H29c0.2,0,0.8,0,1.2-0.4
	c0.2-0.2,0.3-0.4,0.5-0.7V76l3.8-14.2h14.4L52.6,76v0.1c0.3,0.7,0.9,1.1,1.7,1.1h8.2c0.7,0,1-0.4,1.2-0.6c0.3-0.4,0.3-0.8,0.1-1.4
	L48.1,21.8z M37,51.9c1-3.6,2-7.4,2.9-11.2c0.6-2.5,1.2-4.8,1.6-6.9c0.3,1.1,0.6,2.3,0.9,3.6c0.7,2.7,1.4,5.4,2.4,9
	c0.5,1.9,1,3.7,1.4,5.4H37V51.9z"/>
</svg>
