<svg width="41" height="40" viewBox="0 0 41 40" fill="none" xmlns="http://www.w3.org/2000/svg">
<g clip-path="url(#clip0_1826_3130)">
<path d="M33.2164 39.0746H7.58364C3.61643 39.0746 0.399994 35.8585 0.399994 31.891V7.18364C0.399994 3.21644 3.61643 0 7.58364 0H33.216C37.1836 0 40.3997 3.21644 40.3997 7.18364V31.891C40.4 35.8585 37.1839 39.0746 33.2164 39.0746Z" fill="#D9D9D9" fill-opacity="0.05"/>
<path d="M31.3736 15.6467H27.7144V29.0221H31.3736V15.6467Z" fill="#D9D9D9" fill-opacity="0.75"/>
<path d="M29.5442 14.2588C30.7057 14.2588 31.6474 13.3172 31.6474 12.1556C31.6474 10.9941 30.7057 10.0524 29.5442 10.0524C28.3826 10.0524 27.441 10.9941 27.441 12.1556C27.441 13.3172 28.3826 14.2588 29.5442 14.2588Z" fill="#D9D9D9" fill-opacity="0.75"/>
<path d="M19.789 11.3984H15.0749C15.0749 12.1908 14.9374 12.9774 14.6685 13.723L9.15295 29.0221H13.0149L14.4025 24.8067L20.5911 24.7618L22.0051 29.0221H26.0885L19.789 11.3984ZM15.417 21.3569L17.4292 14.5151L19.5401 21.3569H15.417Z" fill="#D9D9D9" fill-opacity="0.75"/>
</g>
<defs>
<clipPath id="clip0_1826_3130">
<rect width="40" height="39.0746" fill="white" transform="translate(0.399994)"/>
</clipPath>
</defs>
</svg>
