<svg width="41" height="40" viewBox="0 0 41 40" fill="none" xmlns="http://www.w3.org/2000/svg">
<g clip-path="url(#clip0_2273_639)">
<path d="M33.2163 39.0746H7.58354C3.61634 39.0746 0.399902 35.8585 0.399902 31.891V7.18364C0.399902 3.21644 3.61634 0 7.58354 0H33.2159C37.1835 0 40.3996 3.21644 40.3996 7.18364V31.891C40.3999 35.8585 37.1838 39.0746 33.2163 39.0746Z" fill="#D9D9D9" fill-opacity="0.02"/>
<path d="M31.3734 15.6469H27.7141V29.0223H31.3734V15.6469Z" fill="#8E8E93"/>
<path d="M29.5441 14.2589C30.7057 14.2589 31.6473 13.3172 31.6473 12.1557C31.6473 10.9941 30.7057 10.0525 29.5441 10.0525C28.3825 10.0525 27.4409 10.9941 27.4409 12.1557C27.4409 13.3172 28.3825 14.2589 29.5441 14.2589Z" fill="#8E8E93"/>
<path d="M19.7889 11.3984H15.0748C15.0748 12.1908 14.9373 12.9774 14.6684 13.7231L9.15283 29.0222H13.0148L14.4024 24.8068L20.5909 24.7619L22.005 29.0222H26.0884L19.7889 11.3984ZM15.4169 21.357L17.4291 14.5151L19.54 21.357H15.4169Z" fill="#8E8E93"/>
</g>
<defs>
<clipPath id="clip0_2273_639">
<rect width="40" height="39.0746" fill="white" transform="translate(0.399902)"/>
</clipPath>
</defs>
</svg>
