<svg width="98" height="81" viewBox="0 0 98 81" fill="none" xmlns="http://www.w3.org/2000/svg">
<g clip-path="url(#clip0_1000_1132)">
<path d="M79.9619 53.1234C79.9619 45.9287 79.8147 38.7341 79.9987 31.5455C80.2073 23.6087 76.613 17.7634 70.4794 13.243C64.9102 9.13965 58.5558 7.19531 51.6678 6.75983C42.8968 6.20781 34.8005 8.08468 27.612 13.2185C22.8033 16.6533 19.3992 21.143 18.3258 27.1048C18.0805 28.4849 18.1111 29.9201 18.105 31.3309C18.0866 46.7936 18.0927 62.2501 18.0866 77.7128C18.0866 79.9638 18.013 80.0374 15.762 79.602C11.4623 78.7678 8.27903 76.2653 5.80107 72.7753C-0.700505 63.5995 -0.909045 48.5355 5.54959 39.28C7.00325 37.1945 9.20519 35.6428 10.9839 33.772C11.4991 33.2261 12.1002 32.441 12.0941 31.7663C11.9653 19.0515 18.6079 10.5749 29.4275 5.25097C42.3264 -1.09113 55.581 -1.02366 68.5474 5.17737C77.4594 9.44019 83.6727 16.2055 85.5803 26.2523C85.936 28.1291 85.844 30.0857 86.0464 31.9933C86.1078 32.5392 86.3163 33.2875 86.715 33.5512C93.8667 38.2434 96.4489 45.3215 97.0684 53.3749C97.5346 59.4042 96.6145 65.2126 93.6275 70.5734C91.033 75.2165 87.4817 78.6697 82.0289 79.6633C80.1337 80.0068 79.9987 79.8964 79.9926 77.9336C79.9803 69.6656 79.9865 61.3976 79.9865 53.1295C79.9803 53.1234 79.9681 53.1234 79.9619 53.1234Z" fill="#050406"/>
<path d="M77.5517 79.6385C75.2025 79.571 74.074 78.5528 74.0126 76.5349C73.9267 73.646 73.9267 70.7571 73.7795 67.8743C73.7366 67.0033 73.3257 66.1446 73.0865 65.286C72.8534 65.2982 72.6203 65.3105 72.3872 65.3228C72.1603 66.7089 71.9333 68.0951 71.6205 70.0149C70.86 67.9724 70.2589 66.3532 69.6517 64.7339C69.4861 64.7155 69.3266 64.691 69.161 64.6726C68.106 69.0888 67.051 73.5049 66.0022 77.9211C65.8795 77.9149 65.763 77.9088 65.6403 77.9027C65.4011 73.2964 65.168 68.6901 64.9288 64.0838C64.7448 64.0654 64.5669 64.0408 64.3829 64.0224C61.2057 68.4815 62.8373 73.9036 61.6903 79.2214C60.5249 74.0692 59.4393 69.2912 58.3598 64.507C58.1758 64.4825 57.9918 64.4579 57.8078 64.4334C56.7467 68.7269 55.6855 73.0142 54.6183 77.3077C54.4956 77.32 54.373 77.3384 54.2503 77.3507C53.8148 73.4865 53.3855 69.6224 52.95 65.7582C52.7537 65.7276 52.5513 65.703 52.355 65.6724C51.0976 70.616 49.8403 75.5597 48.5829 80.5094C48.4663 80.5033 48.3498 80.5033 48.2333 80.4972C47.761 75.4799 47.2887 70.4627 46.8042 65.3534C45.5345 66.4697 45.4057 67.1383 45.2769 71.5299C45.2094 73.6644 45.0316 75.7927 44.6206 77.9885C43.2283 72.8118 41.836 67.6351 40.4375 62.4584C40.2474 62.4522 40.0572 62.4522 39.861 62.4461C39.1924 66.8745 38.5238 71.2968 37.8553 75.7253C36.4262 71.9347 36.5734 67.8068 34.8376 64.2126C34.6045 64.2494 34.3714 64.2862 34.1384 64.323C34.1384 67.9479 34.1384 71.5728 34.1384 75.1978C33.9359 75.2223 33.7335 75.253 33.5373 75.2775C33.1631 73.5969 32.838 71.9041 32.4087 70.2357C31.9855 68.5919 31.4641 66.9727 30.9857 65.3412C30.7956 65.3718 30.5993 65.4086 30.4092 65.4393C30.2681 68.4447 30.1209 71.444 29.9798 74.4495C29.8878 74.4679 29.7897 74.4924 29.6977 74.5108C29.2438 72.591 28.7899 70.6712 28.336 68.7514C28.1459 68.7759 27.9496 68.7943 27.7595 68.8189C27.5754 70.4933 27.3914 72.1739 27.2074 73.8484C27.0848 73.8668 26.9682 73.8852 26.8456 73.8975C26.1586 71.8182 25.4716 69.7389 24.7908 67.6596C24.6068 67.6842 24.4167 67.7148 24.2327 67.7394C24.2327 69.6653 24.2388 71.5974 24.2327 73.5233C24.2265 74.4863 24.2265 75.4493 24.1836 76.4122C24.0977 78.516 22.8833 79.6139 20.5464 79.6017C20.5464 64.0102 20.5464 48.4187 20.5464 32.821C22.8894 32.4775 24.0732 33.4344 24.0916 35.6793C24.1407 42.0766 24.0855 48.48 24.3063 54.8712C24.3799 56.932 25.1772 58.9684 25.6434 61.0109C25.809 60.9925 25.9807 60.9679 26.1463 60.9495C26.2997 58.858 26.4469 56.7726 26.6186 54.3989C27.2688 55.1901 27.7656 55.7973 28.2685 56.4046C28.428 56.3984 28.5875 56.3923 28.7531 56.3862C29.164 52.8287 29.575 49.2712 29.9859 45.7138C30.0902 45.7138 30.1883 45.7138 30.2926 45.7138C30.7526 50.2771 31.2065 54.8405 31.6665 59.4039C31.8383 59.4039 32.01 59.3977 32.1817 59.3977C35.4448 54.221 33.7519 48.2101 34.6045 42.6347C34.7456 42.6347 34.8866 42.6347 35.0277 42.6347C35.1749 44.254 35.3405 45.8732 35.4755 47.4925C35.6227 49.2344 35.6779 50.9886 35.8987 52.7244C36.1011 54.3437 35.9171 56.1347 37.751 57.6435C38.4748 49.5227 39.1801 41.7024 39.8794 33.8821C39.9714 33.8699 40.0634 33.8576 40.1554 33.8453C41.4925 42.6715 42.8296 51.4977 44.1667 60.3239C44.3937 60.33 44.6145 60.3362 44.8414 60.3423C46.1049 51.0868 47.3684 41.8312 48.6381 32.5757C48.7976 32.5757 48.957 32.5757 49.1165 32.5757C49.3434 40.7824 49.5643 48.9952 49.7912 57.2019C50.0059 57.2326 50.2205 57.2633 50.4352 57.2939C52.3489 51.559 52.8457 45.4807 54.465 39.5802C55.3543 45.0391 56.2437 50.5041 57.1331 55.9629C57.3171 55.9691 57.5011 55.9752 57.6912 55.9813C59.8625 49.0811 59.7766 41.7822 61.218 34.6979C62.0215 41.9662 62.8189 49.2406 63.6224 56.5088C63.88 56.5334 64.1315 56.564 64.3891 56.5886C65.487 52.7919 66.591 48.9952 67.7993 44.8244C68.7746 48.7744 67.4804 52.7306 69.6823 56.0059C69.8541 56.012 70.0258 56.0181 70.1975 56.0243C70.6024 54.1167 71.0072 52.2153 71.412 50.3078C71.5163 50.3201 71.6205 50.3262 71.7248 50.3385C71.9579 53.0188 72.191 55.6931 72.424 58.3734C72.6448 58.398 72.8656 58.4164 73.0865 58.4409C73.3318 57.4657 73.7734 56.4966 73.7918 55.5213C73.9206 48.9523 73.9697 42.3832 74.031 35.8203C74.0556 33.4098 74.8713 32.6493 77.5639 32.6738C77.5517 48.3021 77.5517 63.9059 77.5517 79.6385Z" fill="#050406"/>
</g>
<defs>
<clipPath id="clip0_1000_1132">
<rect width="96.3705" height="80" fill="white" transform="translate(0.814697 0.509521)"/>
</clipPath>
</defs>
</svg>
