<svg width="49" height="41" viewBox="0 0 49 41" fill="none" xmlns="http://www.w3.org/2000/svg">
<path d="M38.8264 26.2901C38.8264 23.0524 38.7602 19.8148 38.843 16.5799C38.9369 13.0083 37.3194 10.3779 34.5593 8.34365C32.0531 6.49712 29.1936 5.62216 26.0939 5.42619C22.1469 5.17777 18.5036 6.02238 15.2687 8.33261C13.1047 9.87829 11.5728 11.8987 11.0898 14.5816C10.9794 15.2026 10.9932 15.8485 10.9905 16.4833C10.9822 23.4416 10.9849 30.3971 10.9822 37.3555C10.9822 38.3684 10.9491 38.4015 9.93609 38.2056C8.00123 37.8302 6.56872 36.7041 5.45362 35.1335C2.52788 31.0044 2.43403 24.2255 5.34046 20.0604C5.99461 19.122 6.9855 18.4237 7.78594 17.5818C8.01779 17.3362 8.28829 16.9829 8.28553 16.6793C8.22756 10.9575 11.2168 7.14299 16.0857 4.74719C21.8902 1.89321 27.8549 1.92357 33.6898 4.71407C37.7003 6.63237 40.4963 9.6768 41.3547 14.1979C41.5148 15.0425 41.4734 15.923 41.5645 16.7814C41.5921 17.027 41.6859 17.3638 41.8654 17.4825C45.0837 19.594 46.2457 22.7792 46.5245 26.4032C46.7342 29.1164 46.3202 31.7303 44.976 34.1427C43.8085 36.2321 42.2104 37.786 39.7566 38.2332C38.9037 38.3877 38.843 38.3381 38.8402 37.4548C38.8347 33.7342 38.8375 30.0135 38.8375 26.2928C38.8347 26.2901 38.8292 26.2901 38.8264 26.2901Z" fill="#D9D9D9" fill-opacity="0.75"/>
<path d="M37.7418 38.222C36.6846 38.1917 36.1768 37.7335 36.1492 36.8254C36.1105 35.5254 36.1105 34.2254 36.0443 32.9281C36.025 32.5362 35.84 32.1497 35.7324 31.7633C35.6275 31.7688 35.5226 31.7744 35.4177 31.7799C35.3156 32.4037 35.2135 33.0275 35.0727 33.8914C34.7305 32.9723 34.46 32.2436 34.1867 31.5149C34.1122 31.5066 34.0404 31.4956 33.9659 31.4873C33.4912 33.4746 33.0164 35.4619 32.5444 37.4492C32.4892 37.4465 32.4368 37.4437 32.3816 37.4409C32.2739 35.3681 32.169 33.2952 32.0614 31.2223C31.9786 31.2141 31.8986 31.203 31.8158 31.1947C30.386 33.2014 31.1202 35.6413 30.6041 38.0344C30.0796 35.7158 29.5911 33.5657 29.1053 31.4128C29.0225 31.4018 28.9397 31.3907 28.8569 31.3797C28.3794 33.3118 27.9019 35.2411 27.4216 37.1732C27.3664 37.1787 27.3112 37.187 27.256 37.1925C27.06 35.4536 26.8668 33.7147 26.6709 31.9759C26.5825 31.9621 26.4914 31.951 26.4031 31.9372C25.8373 34.1619 25.2715 36.3866 24.7056 38.614C24.6532 38.6112 24.6008 38.6112 24.5483 38.6085C24.3358 36.3507 24.1233 34.0929 23.9052 31.7937C23.3339 32.296 23.2759 32.5969 23.2179 34.5731C23.1876 35.5337 23.1075 36.4914 22.9226 37.4796C22.296 35.15 21.6695 32.8205 21.0402 30.4909C20.9546 30.4881 20.869 30.4881 20.7807 30.4854C20.4799 32.4782 20.179 34.4683 19.8782 36.4611C19.235 34.7553 19.3013 32.8977 18.5202 31.2803C18.4153 31.2969 18.3104 31.3134 18.2055 31.33C18.2055 32.9612 18.2055 34.5925 18.2055 36.2237C18.1144 36.2348 18.0233 36.2486 17.935 36.2596C17.7667 35.5033 17.6204 34.7415 17.4272 33.9908C17.2367 33.251 17.0021 32.5224 16.7868 31.7882C16.7012 31.802 16.6129 31.8185 16.5274 31.8323C16.4639 33.1848 16.3976 34.5345 16.3341 35.887C16.2927 35.8953 16.2486 35.9063 16.2072 35.9146C16.0029 35.0507 15.7987 34.1867 15.5944 33.3228C15.5089 33.3338 15.4205 33.3421 15.335 33.3532C15.2522 34.1067 15.1694 34.863 15.0866 35.6165C15.0314 35.6248 14.9789 35.633 14.9237 35.6386C14.6146 34.7029 14.3054 33.7672 13.9991 32.8315C13.9163 32.8425 13.8307 32.8563 13.7479 32.8674C13.7479 33.7341 13.7507 34.6035 13.7479 35.4702C13.7451 35.9035 13.7451 36.3369 13.7258 36.7702C13.6872 37.7169 13.1407 38.211 12.0891 38.2055C12.0891 31.1892 12.0891 24.173 12.0891 17.1539C13.1434 16.9994 13.6761 17.4299 13.6844 18.4401C13.7065 21.319 13.6816 24.2006 13.781 27.0766C13.8141 28.004 14.173 28.9204 14.3827 29.8395C14.4572 29.8312 14.5345 29.8202 14.6091 29.8119C14.6781 28.8707 14.7443 27.9323 14.8216 26.8641C15.1142 27.2201 15.3377 27.4934 15.5641 27.7666C15.6358 27.7639 15.7076 27.7611 15.7821 27.7584C15.967 26.1575 16.152 24.5566 16.3369 22.9557C16.3838 22.9557 16.428 22.9557 16.4749 22.9557C16.6819 25.0093 16.8862 27.0628 17.0932 29.1164C17.1705 29.1164 17.2477 29.1136 17.325 29.1136C18.7934 26.784 18.0316 24.0791 18.4153 21.5701C18.4788 21.5701 18.5423 21.5701 18.6057 21.5701C18.672 22.2988 18.7465 23.0275 18.8072 23.7562C18.8735 24.5401 18.8983 25.3294 18.9977 26.1106C19.0888 26.8392 19.006 27.6452 19.8312 28.3242C20.1569 24.6698 20.4743 21.1506 20.789 17.6314C20.8304 17.6259 20.8718 17.6204 20.9132 17.6149C21.5149 21.5867 22.1166 25.5585 22.7183 29.5304C22.8205 29.5331 22.9198 29.5359 23.022 29.5387C23.5905 25.3736 24.1591 21.2086 24.7305 17.0435C24.8022 17.0435 24.874 17.0435 24.9458 17.0435C25.0479 20.7366 25.1473 24.4324 25.2494 28.1255C25.346 28.1393 25.4426 28.1531 25.5392 28.1669C26.4004 25.5861 26.6239 22.8508 27.3526 20.1956C27.7528 22.6521 28.153 25.1114 28.5533 27.5679C28.6361 27.5707 28.7189 27.5734 28.8044 27.5762C29.7815 24.471 29.7429 21.1865 30.3915 17.9985C30.7531 21.2693 31.1119 24.5428 31.4735 27.8136C31.5894 27.8246 31.7026 27.8384 31.8185 27.8495C32.3126 26.1409 32.8094 24.4324 33.3531 22.5555C33.792 24.333 33.2096 26.1133 34.2005 27.5872C34.2778 27.59 34.3551 27.5928 34.4324 27.5955C34.6145 26.7371 34.7967 25.8815 34.9789 25.0231C35.0258 25.0286 35.0727 25.0314 35.1196 25.0369C35.2245 26.2431 35.3294 27.4465 35.4343 28.6527C35.5337 28.6637 35.633 28.672 35.7324 28.683C35.8428 28.2442 36.0415 27.8081 36.0498 27.3692C36.1078 24.4131 36.1298 21.457 36.1574 18.5036C36.1685 17.4189 36.5356 17.0766 37.7473 17.0877C37.7418 24.1205 37.7418 31.1423 37.7418 38.222Z" fill="#D9D9D9" fill-opacity="0.75"/>
</svg>
