<svg width="49" height="41" viewBox="0 0 49 41" fill="none" xmlns="http://www.w3.org/2000/svg">
<path d="M38.2263 26.29C38.2263 23.0524 38.16 19.8147 38.2429 16.5798C38.3367 13.0082 36.7192 10.3778 33.9591 8.34359C31.4529 6.49706 28.5934 5.6221 25.4938 5.42613C21.5468 5.17771 17.9034 6.02232 14.6685 8.33255C12.5046 9.87823 10.9727 11.8986 10.4897 14.5815C10.3793 15.2025 10.3931 15.8484 10.3903 16.4832C10.382 23.4415 10.3848 30.3971 10.382 37.3554C10.382 38.3684 10.3489 38.4015 9.33593 38.2055C7.40107 37.8301 5.96856 36.704 4.85347 35.1335C1.92772 31.0043 1.83388 24.2254 4.7403 20.0604C5.39445 19.1219 6.38534 18.4236 7.18578 17.5818C7.41763 17.3361 7.68813 16.9828 7.68537 16.6792C7.6274 10.9574 10.6166 7.14293 15.4855 4.74713C21.2901 1.89315 27.2547 1.92351 33.0897 4.71401C37.1002 6.63231 39.8962 9.67674 40.7546 14.1978C40.9147 15.0424 40.8733 15.9229 40.9643 16.7813C40.9919 17.027 41.0858 17.3637 41.2652 17.4824C44.4835 19.5939 45.6455 22.7791 45.9243 26.4032C46.1341 29.1164 45.7201 31.7302 44.3759 34.1426C43.2083 36.232 41.6102 37.786 39.1565 38.2331C38.3036 38.3877 38.2428 38.338 38.2401 37.4548C38.2346 33.7341 38.2373 30.0134 38.2373 26.2928C38.2346 26.29 38.229 26.29 38.2263 26.29Z" fill="#8E8E93"/>
<path d="M37.1417 38.222C36.0846 38.1916 35.5767 37.7334 35.5491 36.8254C35.5105 35.5253 35.5105 34.2253 35.4442 32.928C35.4249 32.5361 35.24 32.1497 35.1324 31.7633C35.0275 31.7688 34.9226 31.7743 34.8177 31.7798C34.7156 32.4036 34.6134 33.0274 34.4727 33.8913C34.1304 32.9722 33.8599 32.2435 33.5867 31.5149C33.5122 31.5066 33.4404 31.4955 33.3659 31.4873C32.8911 33.4746 32.4164 35.4619 31.9444 37.4492C31.8892 37.4464 31.8367 37.4436 31.7815 37.4409C31.6739 35.368 31.569 33.2951 31.4614 31.2223C31.3786 31.214 31.2985 31.203 31.2157 31.1947C29.786 33.2013 30.5202 35.6413 30.004 38.0343C29.4796 35.7158 28.991 33.5656 28.5053 31.4127C28.4225 31.4017 28.3397 31.3906 28.2568 31.3796C27.7793 33.3117 27.3018 35.241 26.8216 37.1731C26.7664 37.1787 26.7112 37.1869 26.656 37.1925C26.46 35.4536 26.2668 33.7147 26.0708 31.9758C25.9825 31.962 25.8914 31.951 25.8031 31.9372C25.2373 34.1618 24.6714 36.3865 24.1056 38.6139C24.0532 38.6112 24.0007 38.6112 23.9483 38.6084C23.7357 36.3506 23.5232 34.0928 23.3052 31.7936C22.7338 32.296 22.6758 32.5968 22.6179 34.5731C22.5875 35.5336 22.5075 36.4914 22.3226 37.4795C21.696 35.15 21.0695 32.8204 20.4401 30.4908C20.3546 30.4881 20.269 30.4881 20.1807 30.4853C19.8798 32.4781 19.579 34.4682 19.2781 36.461C18.635 34.7553 18.7013 32.8977 17.9201 31.2802C17.8152 31.2968 17.7104 31.3134 17.6055 31.3299C17.6055 32.9612 17.6055 34.5924 17.6055 36.2236C17.5144 36.2347 17.4233 36.2485 17.335 36.2595C17.1666 35.5033 17.0203 34.7415 16.8271 33.9907C16.6367 33.251 16.4021 32.5223 16.1868 31.7881C16.1012 31.8019 16.0129 31.8185 15.9273 31.8323C15.8638 33.1847 15.7976 34.5344 15.7341 35.8869C15.6927 35.8952 15.6485 35.9062 15.6071 35.9145C15.4029 35.0506 15.1986 34.1867 14.9944 33.3227C14.9088 33.3338 14.8205 33.3421 14.7349 33.3531C14.6521 34.1066 14.5693 34.8629 14.4865 35.6164C14.4313 35.6247 14.3789 35.633 14.3237 35.6385C14.0145 34.7028 13.7054 33.7671 13.399 32.8314C13.3162 32.8425 13.2307 32.8563 13.1479 32.8673C13.1479 33.734 13.1506 34.6034 13.1479 35.4701C13.1451 35.9035 13.1451 36.3368 13.1258 36.7702C13.0871 37.7169 12.5406 38.2109 11.489 38.2054C11.489 31.1892 11.489 24.1729 11.489 17.1539C12.5434 16.9993 13.0761 17.4299 13.0844 18.4401C13.1065 21.3189 13.0816 24.2005 13.181 27.0766C13.2141 28.004 13.5729 28.9203 13.7827 29.8395C13.8572 29.8312 13.9345 29.8201 14.009 29.8119C14.078 28.8706 14.1443 27.9322 14.2215 26.864C14.5141 27.2201 14.7377 27.4933 14.964 27.7666C15.0358 27.7638 15.1076 27.7611 15.1821 27.7583C15.367 26.1574 15.5519 24.5565 15.7369 22.9557C15.7838 22.9557 15.828 22.9557 15.8749 22.9557C16.0819 25.0092 16.2861 27.0628 16.4931 29.1163C16.5704 29.1163 16.6477 29.1135 16.725 29.1135C18.1934 26.784 17.4316 24.079 17.8152 21.5701C17.8787 21.5701 17.9422 21.5701 18.0057 21.5701C18.0719 22.2988 18.1465 23.0274 18.2072 23.7561C18.2734 24.54 18.2983 25.3294 18.3976 26.1105C18.4887 26.8392 18.4059 27.6451 19.2312 28.3241C19.5569 24.6697 19.8743 21.1505 20.189 17.6314C20.2304 17.6258 20.2718 17.6203 20.3132 17.6148C20.9149 21.5866 21.5166 25.5585 22.1183 29.5303C22.2204 29.5331 22.3198 29.5358 22.4219 29.5386C22.9905 25.3736 23.5591 21.2085 24.1304 17.0435C24.2022 17.0435 24.274 17.0435 24.3457 17.0435C24.4479 20.7365 24.5472 24.4323 24.6493 28.1254C24.746 28.1392 24.8426 28.153 24.9392 28.1668C25.8003 25.5861 26.0239 22.8508 26.7526 20.1955C27.1528 22.6521 27.553 25.1113 27.9532 27.5679C28.036 27.5706 28.1188 27.5734 28.2044 27.5761C29.1815 24.471 29.1429 21.1864 29.7915 17.9985C30.1531 21.2692 30.5119 24.5428 30.8735 27.8135C30.9894 27.8246 31.1026 27.8384 31.2185 27.8494C31.7125 26.1409 32.2094 24.4323 32.7531 22.5555C33.192 24.333 32.6096 26.1133 33.6005 27.5872C33.6778 27.5899 33.755 27.5927 33.8323 27.5955C34.0145 26.7371 34.1967 25.8814 34.3788 25.023C34.4258 25.0285 34.4727 25.0313 34.5196 25.0368C34.6245 26.243 34.7294 27.4464 34.8343 28.6526C34.9336 28.6636 35.033 28.6719 35.1324 28.683C35.2428 28.2441 35.4415 27.808 35.4498 27.3691C35.5077 24.413 35.5298 21.4569 35.5574 18.5036C35.5685 17.4188 35.9355 17.0766 37.1472 17.0876C37.1417 24.1204 37.1417 31.1422 37.1417 38.222Z" fill="#8E8E93"/>
</svg>
