<svg width="29" height="41" viewBox="0 0 29 41" fill="none" xmlns="http://www.w3.org/2000/svg">
<path fill-rule="evenodd" clip-rule="evenodd" d="M21.8559 16.944C22.0889 15.4821 22.1887 14.0559 22.1079 12.7248C21.9225 9.68692 21.1 7.52858 20.1326 6.01204C18.4996 3.44961 16.4506 2.72224 16.3507 2.68896C17.4489 2.91003 18.6041 3.35691 19.6999 4.00584C20.7958 4.65476 21.8345 5.50336 22.6998 6.52548C23.9691 8.02538 24.8676 9.8961 25.0292 12.0473C25.0506 12.3397 25.0625 12.6392 25.0625 12.9387C25.0625 14.044 24.9199 15.1921 24.6846 16.3426C24.4801 17.3338 24.2044 18.3274 23.8859 19.2948C23.5697 20.2623 23.2084 21.2012 22.8376 22.0878L22.7449 22.3089C22.0342 23.9823 21.2878 25.4537 20.7102 26.5329C19.6619 28.4939 18.7182 29.875 17.5701 31.2394C16.9188 32.0143 16.201 32.7868 15.3643 33.6544C15.6091 33.374 16.3246 32.1783 17.2065 30.4193C18.4473 27.9353 20.0161 24.3341 21.0453 20.6141L21.0881 20.462C21.2474 19.8772 21.3948 19.2877 21.5231 18.7006C21.6515 18.1111 21.7632 17.524 21.8559 16.944Z" fill="#8E8E93"/>
<path fill-rule="evenodd" clip-rule="evenodd" d="M6.80475 16.944C6.5718 15.4821 6.47196 14.0559 6.55278 12.7248C6.73819 9.68692 7.56064 7.52858 8.52809 6.01204C10.1587 3.44961 12.2101 2.72224 12.3099 2.68896C11.2117 2.91003 10.0565 3.35691 8.96071 4.00584C7.8649 4.65476 6.82614 5.50336 5.96091 6.52548C4.69157 8.02538 3.79306 9.8961 3.63142 12.0473C3.61003 12.3397 3.59814 12.6392 3.59814 12.9387C3.59814 14.044 3.74077 15.1921 3.97609 16.3426C4.18051 17.3338 4.45625 18.3274 4.77477 19.2948C5.09091 20.2623 5.45222 21.2012 5.82304 22.0878L5.91574 22.3089C6.62647 23.9823 7.37286 25.4537 7.95047 26.5329C8.99874 28.4939 9.94242 29.875 11.0905 31.2394C11.7418 32.0143 12.4597 32.7868 13.2964 33.6544C13.0516 33.374 12.3361 32.1783 11.4542 30.4193C10.2134 27.9353 8.64456 24.3341 7.61531 20.6141L7.57253 20.462C7.41327 19.8772 7.26589 19.2877 7.13753 18.7006C7.00917 18.1111 6.89745 17.524 6.80475 16.944Z" fill="#8E8E93"/>
<path fill-rule="evenodd" clip-rule="evenodd" d="M18.5613 13.231C18.5613 14.7523 18.4686 16.3544 18.2974 17.9946C18.2879 18.1182 18.2713 18.2418 18.2594 18.3677C18.1263 19.5776 17.9527 20.8089 17.7459 22.0402C17.5986 22.9221 17.425 23.8183 17.2373 24.7025C16.9473 26.0717 16.624 27.4076 16.3102 28.6175C15.5543 31.5317 14.865 33.69 14.865 33.69H13.7953C13.7953 33.69 12.4381 29.4423 11.4492 24.8119C11.4326 24.731 11.4159 24.6526 11.3969 24.5718C11.2186 23.7327 11.0546 22.8817 10.9144 22.0426C10.8454 21.6314 10.7813 21.2202 10.7195 20.8089C10.37 18.47 10.149 16.1619 10.1062 13.9988C10.0539 11.4221 10.2536 9.05457 10.7884 7.09352C10.8027 7.03885 10.8169 6.98656 10.8336 6.93426C10.9477 6.54205 11.0736 6.1855 11.2115 5.85985C12.3881 3.08349 14.3016 2.68652 14.3016 2.68652H14.3563C14.3563 2.68652 14.8127 2.7816 15.4188 3.20234C16.0226 3.62307 16.7761 4.36708 17.3656 5.66969C17.5534 6.08567 17.7246 6.55632 17.8719 7.09115C18.131 8.04909 18.3141 9.10211 18.4234 10.2312C18.5161 11.1844 18.5613 12.1875 18.5613 13.231Z" fill="#8E8E93"/>
<path fill-rule="evenodd" clip-rule="evenodd" d="M12.3621 38.6865H14.3303H16.2961L17.0259 35.5084H11.6348L12.3621 38.6865Z" fill="#8E8E93"/>
<path fill-rule="evenodd" clip-rule="evenodd" d="M12.267 33.5997C12.2337 33.5664 11.8819 33.2289 11.3352 32.6537C10.7885 32.0784 10.0445 31.2679 9.22918 30.2909C8.11911 28.9621 6.87117 27.3268 5.78962 25.5559C5.55905 25.1756 5.33561 24.8 5.12168 24.4244C4.11858 22.6773 3.30088 20.992 2.6781 19.3257C2.05532 17.6618 1.62508 16.0169 1.40164 14.3601C1.33508 13.8704 1.28992 13.3808 1.25902 12.8911C1.23525 12.487 1.24951 12.0877 1.29943 11.6955C1.33033 11.4482 1.37312 11.2034 1.43016 10.9633C2.2027 7.60697 5.2952 4.86389 6.97338 4.25537C6.88543 4.31004 4.03538 6.06429 2.86351 9.62507C2.63531 10.3144 2.4713 11.0727 2.40237 11.8975C2.3572 12.4537 2.35245 13.0385 2.40237 13.6565C2.43327 14.0511 2.47843 14.4433 2.5331 14.8331C3.05129 18.5318 4.54169 21.8976 5.93938 24.4458C6.75469 25.9314 7.53674 27.1366 8.0787 27.9686C8.45664 28.5509 8.89402 29.1785 9.34327 29.7941C10.7219 31.6981 12.1957 33.5118 12.267 33.5997Z" fill="#8E8E93"/>
<path fill-rule="evenodd" clip-rule="evenodd" d="M16.3936 33.6163C16.4268 33.583 16.7786 33.2455 17.3253 32.6703C17.8721 32.095 18.6161 31.2845 19.4314 30.3075C20.5415 28.9787 21.7894 27.3434 22.8709 25.5725C23.1015 25.1922 23.325 24.8166 23.5389 24.441C24.542 22.6939 25.3597 21.0086 25.9825 19.3423C26.6052 17.6784 27.0355 16.0335 27.2589 14.3767C27.3255 13.887 27.3706 13.3974 27.4015 12.9077C27.4253 12.5036 27.4111 12.1043 27.3611 11.7121C27.3302 11.4648 27.2874 11.22 27.2304 10.9799C26.4579 7.62357 23.3654 4.87811 21.6872 4.27197C21.7751 4.32664 24.6252 6.08089 25.7947 9.64167C26.0229 10.331 26.1869 11.0893 26.2558 11.9141C26.301 12.4703 26.3057 13.0551 26.2558 13.6731C26.2249 14.0677 26.1798 14.4599 26.1251 14.8497C25.6069 18.5484 24.1165 21.9142 22.7188 24.4624C21.9035 25.948 21.1215 27.1532 20.5795 27.9852C20.2015 28.5675 19.7642 29.1951 19.3149 29.8107C17.9386 31.7147 16.4649 33.526 16.3936 33.6163Z" fill="#8E8E93"/>
</svg>
