<svg width="73" height="101" viewBox="0 0 73 101" fill="none" xmlns="http://www.w3.org/2000/svg">
<g clip-path="url(#clip0_955_1047)">
<path fill-rule="evenodd" clip-rule="evenodd" d="M57.2756 39.3691C57.9187 35.3334 58.1943 31.3961 57.9712 27.7213C57.4594 19.335 55.1889 13.3766 52.5181 9.18994C48.0099 2.11599 42.3534 0.107983 42.0778 0.0161133C45.1095 0.62639 48.2986 1.86007 51.3238 3.65152C54.3489 5.44298 57.2166 7.78565 59.6052 10.6074C63.1093 14.7481 65.5898 19.9124 66.036 25.8511C66.0951 26.6583 66.1279 27.4851 66.1279 28.3119C66.1279 31.3633 65.7342 34.5328 65.0845 37.7089C64.5202 40.4453 63.759 43.1882 62.8797 45.859C62.0069 48.5298 61.0095 51.1218 59.9858 53.5695L59.7298 54.1798C57.7678 58.7995 55.7073 62.8614 54.1127 65.8406C51.2188 71.2544 48.6136 75.067 45.4441 78.8336C43.6461 80.9729 41.6644 83.1056 39.3545 85.5007C40.0304 84.7264 42.0056 81.4256 44.4401 76.5697C47.8655 69.7123 52.1965 59.7707 55.0379 49.501L55.1561 49.081C55.5957 47.4667 56.0026 45.8393 56.3569 44.2185C56.7113 42.5911 57.0197 40.9702 57.2756 39.3691Z" fill="#0E0E0E" fill-opacity="0.75"/>
<path fill-rule="evenodd" clip-rule="evenodd" d="M15.7244 39.3691C15.0813 35.3334 14.8057 31.3961 15.0288 27.7213C15.5406 19.335 17.8111 13.3766 20.4819 9.18994C24.9835 2.11599 30.6466 0.107983 30.9222 0.0161133C27.8905 0.62639 24.7013 1.86007 21.6762 3.65152C18.6511 5.44298 15.7834 7.78565 13.3948 10.6074C9.89064 14.7481 7.41016 19.9124 6.96394 25.8511C6.90488 26.6583 6.87207 27.4851 6.87207 28.3119C6.87207 31.3633 7.2658 34.5328 7.91545 37.7089C8.47979 40.4453 9.24099 43.1882 10.1203 45.859C10.9931 48.5298 11.9905 51.1218 13.0142 53.5695L13.2701 54.1798C15.2322 58.7995 17.2927 62.8614 18.8873 65.8406C21.7812 71.2544 24.3863 75.067 27.5558 78.8336C29.3539 80.9729 31.3356 83.1056 33.6455 85.5007C32.9696 84.7264 30.9944 81.4256 28.5598 76.5697C25.1344 69.7123 20.8034 59.7707 17.962 49.501L17.8439 49.081C17.4043 47.4667 16.9974 45.8393 16.6431 44.2185C16.2887 42.5911 15.9803 40.9702 15.7244 39.3691Z" fill="#0E0E0E" fill-opacity="0.75"/>
<path fill-rule="evenodd" clip-rule="evenodd" d="M48.1805 29.119C48.1805 33.3188 47.9246 37.7417 47.4521 42.2695C47.4259 42.6107 47.38 42.952 47.3472 43.2998C46.9797 46.6399 46.5006 50.039 45.9297 53.4382C45.5229 55.8728 45.0439 58.3467 44.5254 60.7878C43.7249 64.5676 42.8324 68.2555 41.9662 71.5956C39.8795 79.6407 37.9765 85.5991 37.9765 85.5991H35.0235C35.0235 85.5991 31.2765 73.8726 28.5467 61.0896C28.5008 60.8665 28.4548 60.65 28.4023 60.4269C27.9102 58.1104 27.4574 55.7612 27.0702 53.4448C26.8799 52.3095 26.7028 51.1743 26.5321 50.039C25.5675 43.5819 24.9572 37.2101 24.8391 31.2386C24.6947 24.1253 25.246 17.5894 26.7224 12.1757C26.7618 12.0247 26.8012 11.8804 26.8471 11.736C27.1621 10.6533 27.5099 9.66895 27.8905 8.76994C31.1387 1.10539 36.4212 0.00952148 36.4212 0.00952148H36.5722C36.5722 0.00952148 37.8321 0.272006 39.5054 1.4335C41.1722 2.59499 43.2524 4.64893 44.8798 8.24497C45.3982 9.39334 45.8707 10.6926 46.2775 12.1691C46.9928 14.8136 47.4981 17.7207 47.7999 20.8377C48.0559 23.4691 48.1805 26.2383 48.1805 29.119Z" fill="#0E0E0E" fill-opacity="0.75"/>
<path fill-rule="evenodd" clip-rule="evenodd" d="M31.0666 99.3927H36.5H41.9269L43.9415 90.6191H29.0586L31.0666 99.3927Z" fill="#0E0E0E" fill-opacity="0.75"/>
<path fill-rule="evenodd" clip-rule="evenodd" d="M30.8041 85.3498C30.7123 85.258 29.7411 84.3261 28.2318 82.7381C26.7225 81.1501 24.6686 78.9124 22.4178 76.2154C19.3532 72.5471 15.9081 68.0324 12.9224 63.1436C12.2859 62.0937 11.669 61.0569 11.0784 60.0201C8.30921 55.1969 6.05185 50.5444 4.33258 45.9444C2.6133 41.3509 1.42556 36.8099 0.808723 32.2361C0.624984 30.8843 0.500304 29.5325 0.414996 28.1807C0.349375 27.0652 0.388748 25.9627 0.526552 24.88C0.61186 24.1975 0.729978 23.5216 0.887468 22.8589C3.02015 13.5932 11.5575 6.02048 16.1903 4.34058C15.9475 4.4915 8.07954 9.33434 4.84442 19.1644C4.21446 21.0674 3.76167 23.1607 3.57137 25.4378C3.44669 26.9733 3.43357 28.5876 3.57137 30.2937C3.65668 31.383 3.78136 32.4658 3.93229 33.542C5.36283 43.7526 9.47727 53.0446 13.3358 60.0791C15.5866 64.1805 17.7455 67.5075 19.2417 69.8042C20.2851 71.4119 21.4925 73.1443 22.7327 74.8439C26.5388 80.1001 30.6073 85.107 30.8041 85.3498Z" fill="#0E0E0E" fill-opacity="0.75"/>
<path fill-rule="evenodd" clip-rule="evenodd" d="M42.1958 85.3957C42.2877 85.3039 43.2589 84.372 44.7681 82.784C46.2774 81.196 48.3314 78.9583 50.5822 76.2613C53.6467 72.593 57.0918 68.0783 60.0776 63.1895C60.7141 62.1396 61.3309 61.1028 61.9215 60.066C64.6907 55.2428 66.9481 50.5903 68.6674 45.9903C70.3866 41.3968 71.5744 36.8558 72.1912 32.282C72.3749 30.9302 72.4996 29.5784 72.5849 28.2266C72.6506 27.1111 72.6112 26.0086 72.4734 24.9259C72.3881 24.2434 72.2699 23.5675 72.1125 22.9047C69.9798 13.639 61.4425 6.05981 56.8096 4.38647C57.0524 4.5374 64.9204 9.38024 68.1489 19.2103C68.7789 21.1133 69.2317 23.2066 69.422 25.4837C69.5467 27.0192 69.5598 28.6335 69.422 30.3396C69.3367 31.4289 69.212 32.5117 69.0611 33.5879C67.6305 43.7985 63.5161 53.0905 59.6576 60.125C57.4068 64.2264 55.2478 67.5533 53.7517 69.8501C52.7083 71.4578 51.5009 73.1902 50.2606 74.8898C46.4612 80.146 42.3927 85.1464 42.1958 85.3957Z" fill="#0E0E0E" fill-opacity="0.75"/>
</g>
<defs>
<clipPath id="clip0_955_1047">
<rect width="72.2357" height="100" fill="white" transform="translate(0.38208 0.00952148)"/>
</clipPath>
</defs>
</svg>
