<svg width="29" height="41" viewBox="0 0 29 41" fill="none" xmlns="http://www.w3.org/2000/svg">
<path fill-rule="evenodd" clip-rule="evenodd" d="M21.8559 16.9439C22.0889 15.482 22.1887 14.0558 22.1079 12.7247C21.9225 9.68686 21.1 7.52852 20.1326 6.01198C18.4996 3.44955 16.4506 2.72218 16.3508 2.6889C17.4489 2.90997 18.6042 3.35685 19.7 4.00577C20.7958 4.6547 21.8345 5.5033 22.6998 6.52542C23.9691 8.02532 24.8676 9.89604 25.0293 12.0472C25.0507 12.3396 25.0625 12.6391 25.0625 12.9386C25.0625 14.0439 24.9199 15.192 24.6846 16.3425C24.4802 17.3337 24.2044 18.3273 23.8859 19.2948C23.5698 20.2622 23.2085 21.2012 22.8376 22.0878L22.7449 22.3089C22.0342 23.9823 21.2878 25.4537 20.7102 26.5328C19.6619 28.4939 18.7183 29.8749 17.5702 31.2393C16.9189 32.0142 16.201 32.7868 15.3643 33.6544C15.6091 33.3739 16.3246 32.1782 17.2065 30.4193C18.4473 27.9353 20.0161 24.3341 21.0454 20.614L21.0882 20.4619C21.2474 19.8772 21.3948 19.2877 21.5232 18.7005C21.6515 18.111 21.7632 17.5239 21.8559 16.9439Z" fill="#D9D9D9" fill-opacity="0.75"/>
<path fill-rule="evenodd" clip-rule="evenodd" d="M6.80463 16.9439C6.57168 15.482 6.47184 14.0558 6.55266 12.7247C6.73807 9.68686 7.56052 7.52852 8.52797 6.01198C10.1586 3.44955 12.21 2.72218 12.3098 2.6889C11.2116 2.90997 10.0564 3.35685 8.96059 4.00577C7.86478 4.6547 6.82602 5.5033 5.96078 6.52542C4.69145 8.02532 3.79294 9.89604 3.6313 12.0472C3.60991 12.3396 3.59802 12.6391 3.59802 12.9386C3.59802 14.0439 3.74064 15.192 3.97597 16.3425C4.18039 17.3337 4.45613 18.3273 4.77465 19.2948C5.09079 20.2622 5.4521 21.2012 5.82292 22.0878L5.91562 22.3089C6.62635 23.9823 7.37273 25.4537 7.95035 26.5328C8.99862 28.4939 9.9423 29.8749 11.0904 31.2393C11.7417 32.0142 12.4596 32.7868 13.2963 33.6544C13.0514 33.3739 12.336 32.1782 11.4541 30.4193C10.2133 27.9353 8.64444 24.3341 7.61519 20.614L7.5724 20.4619C7.41314 19.8772 7.26577 19.2877 7.13741 18.7005C7.00905 18.111 6.89733 17.5239 6.80463 16.9439Z" fill="#D9D9D9" fill-opacity="0.75"/>
<path fill-rule="evenodd" clip-rule="evenodd" d="M18.5614 13.231C18.5614 14.7523 18.4687 16.3544 18.2975 17.9946C18.288 18.1182 18.2714 18.2418 18.2595 18.3677C18.1264 19.5776 17.9529 20.8089 17.7461 22.0402C17.5987 22.9221 17.4252 23.8183 17.2374 24.7025C16.9474 26.0717 16.6241 27.4076 16.3103 28.6175C15.5545 31.5317 14.8651 33.69 14.8651 33.69H13.7955C13.7955 33.69 12.4382 29.4423 11.4493 24.8119C11.4327 24.731 11.4161 24.6526 11.397 24.5718C11.2188 23.7327 11.0547 22.8817 10.9145 22.0426C10.8456 21.6314 10.7814 21.2202 10.7196 20.8089C10.3702 18.47 10.1491 16.1619 10.1063 13.9988C10.054 11.4221 10.2537 9.05457 10.7885 7.09352C10.8028 7.03885 10.817 6.98656 10.8337 6.93426C10.9478 6.54205 11.0738 6.1855 11.2116 5.85985C12.3883 3.08349 14.3018 2.68652 14.3018 2.68652H14.3564C14.3564 2.68652 14.8128 2.7816 15.419 3.20234C16.0227 3.62307 16.7762 4.36708 17.3657 5.66969C17.5535 6.08567 17.7247 6.55632 17.872 7.09115C18.1311 8.04909 18.3142 9.10211 18.4235 10.2312C18.5162 11.1844 18.5614 12.1875 18.5614 13.231Z" fill="#D9D9D9" fill-opacity="0.75"/>
<path fill-rule="evenodd" clip-rule="evenodd" d="M12.3621 38.6865H14.3303H16.2961L17.0258 35.5084H11.6347L12.3621 38.6865Z" fill="#D9D9D9" fill-opacity="0.75"/>
<path fill-rule="evenodd" clip-rule="evenodd" d="M12.267 33.5997C12.2337 33.5664 11.8819 33.2289 11.3352 32.6537C10.7885 32.0784 10.0445 31.2679 9.22918 30.2909C8.11911 28.9621 6.87117 27.3268 5.78962 25.5559C5.55905 25.1756 5.33561 24.8 5.12168 24.4244C4.11858 22.6773 3.30088 20.992 2.6781 19.3257C2.05532 17.6618 1.62508 16.0169 1.40164 14.3601C1.33508 13.8704 1.28992 13.3808 1.25902 12.8911C1.23525 12.487 1.24951 12.0877 1.29943 11.6955C1.33033 11.4482 1.37312 11.2034 1.43016 10.9633C2.2027 7.60697 5.2952 4.86389 6.97338 4.25537C6.88543 4.31004 4.03538 6.06429 2.86351 9.62507C2.63531 10.3144 2.4713 11.0727 2.40237 11.8975C2.3572 12.4537 2.35245 13.0385 2.40237 13.6565C2.43327 14.0511 2.47843 14.4433 2.5331 14.8331C3.05129 18.5318 4.54169 21.8976 5.93938 24.4458C6.75469 25.9314 7.53674 27.1366 8.0787 27.9686C8.45664 28.5509 8.89402 29.1785 9.34327 29.7941C10.7219 31.6981 12.1957 33.5118 12.267 33.5997Z" fill="#D9D9D9" fill-opacity="0.75"/>
<path fill-rule="evenodd" clip-rule="evenodd" d="M16.3935 33.6163C16.4268 33.583 16.7786 33.2455 17.3253 32.6703C17.872 32.095 18.616 31.2845 19.4314 30.3075C20.5414 28.9787 21.7894 27.3434 22.8709 25.5725C23.1015 25.1922 23.3249 24.8166 23.5389 24.441C24.542 22.6939 25.3597 21.0086 25.9824 19.3423C26.6052 17.6784 27.0355 16.0335 27.2589 14.3767C27.3255 13.887 27.3706 13.3974 27.4015 12.9077C27.4253 12.5036 27.411 12.1043 27.3611 11.7121C27.3302 11.4648 27.2874 11.22 27.2304 10.9799C26.4578 7.62357 23.3653 4.87811 21.6872 4.27197C21.7751 4.32664 24.6252 6.08089 25.7946 9.64167C26.0228 10.331 26.1869 11.0893 26.2558 11.9141C26.301 12.4703 26.3057 13.0551 26.2558 13.6731C26.2249 14.0677 26.1797 14.4599 26.1251 14.8497C25.6069 18.5484 24.1165 21.9142 22.7188 24.4624C21.9035 25.948 21.1214 27.1532 20.5795 27.9852C20.2015 28.5675 19.7641 29.1951 19.3149 29.8107C17.9386 31.7147 16.4648 33.526 16.3935 33.6163Z" fill="#D9D9D9" fill-opacity="0.75"/>
</svg>
