<svg width="89" height="101" viewBox="0 0 89 101" fill="none" xmlns="http://www.w3.org/2000/svg">
<g clip-path="url(#clip0_964_707)">
<path d="M44.4999 0.00952148H0.149414L8.54488 89.5585L44.4999 100.01V91.8083L15.885 83.4916L8.7969 7.88519H44.4999V0.00952148Z" fill="#0E0E0E" fill-opacity="0.8"/>
<path d="M44.4999 19.1658V29.9449H18.3159L16.8169 19.1658H44.4999Z" fill="#0E0E0E" fill-opacity="0.8"/>
<path d="M18.7334 41.0259L44.5 29.9658V51.4454H20.2324L18.7334 41.0259Z" fill="#0E0E0E" fill-opacity="0.8"/>
<path d="M44.0091 68.5147L44.5 68.4176V80.6721L22.1488 74.4451L20.7102 57.2551H31.4316L32.3294 65.522L44.0091 68.5147Z" fill="#0E0E0E" fill-opacity="0.8"/>
<path d="M88.8505 0.00952148L80.4551 89.5585L44.5 100.01V91.8083L73.1149 83.4916L80.203 7.88519H44.5V0.00952148H88.8505Z" fill="#0E0E0E" fill-opacity="0.75"/>
<path d="M72.0963 29.706L46.7026 40.2463H70.0014L67.1872 73.8465L45.1458 80.8533L44.5 80.6721V68.4176L56.8858 65.9997L58.264 51.4455H44.5V29.9659L44.5473 29.9449H44.5V19.1658H72.099L72.0963 29.706Z" fill="#0E0E0E" fill-opacity="0.75"/>
</g>
<defs>
<clipPath id="clip0_964_707">
<rect width="88.701" height="100" fill="white" transform="translate(0.149414 0.00952148)"/>
</clipPath>
</defs>
</svg>
