<svg width="67" height="101" viewBox="0 0 67 101" fill="none" xmlns="http://www.w3.org/2000/svg">
<path d="M65.9065 50.0096C65.9065 59.0186 58.6483 66.3288 49.7032 66.3288C40.7582 66.3288 33.5 59.0186 33.5 50.0096C33.5 41.0006 40.7582 33.6904 49.7032 33.6904C58.6483 33.6904 65.9065 41.0006 65.9065 50.0096Z" fill="#0E0E0E" fill-opacity="0.6"/>
<path d="M33.5 1.052H49.7032C58.6483 1.052 65.9065 8.36217 65.9065 17.3712C65.9065 26.3802 58.6483 33.6904 49.7032 33.6904H33.5V1.052Z" fill="#0E0E0E" fill-opacity="0.5"/>
<path d="M17.2968 98.9606C26.2418 98.9606 33.5 91.6505 33.5 82.6414V66.3223H17.2968C8.35174 66.3223 1.09351 73.6324 1.09351 82.6414C1.09351 91.6505 8.35174 98.9606 17.2968 98.9606Z" fill="#0E0E0E" fill-opacity="0.5"/>
<path d="M1.09351 50.0096C1.09351 41.0006 8.35174 33.6904 17.2968 33.6904H33.5V66.3288H17.2968C8.35174 66.3288 1.09351 59.0186 1.09351 50.0096Z" fill="#0E0E0E" fill-opacity="0.7"/>
<path d="M1.09351 17.3712C1.09351 8.36217 8.35174 1.052 17.2968 1.052H33.5V33.6904H17.2968C8.35174 33.6904 1.09351 26.3802 1.09351 17.3712Z" fill="#0E0E0E" fill-opacity="0.8"/>
</svg>
