<svg width="40" height="40" viewBox="0 0 40 40" fill="none" xmlns="http://www.w3.org/2000/svg">
<path d="M32.8164 39.7611H7.18364C3.21644 39.7611 0 36.545 0 32.5775V7.87017C0 3.90296 3.21644 0.686523 7.18364 0.686523H32.816C36.7836 0.686523 39.9997 3.90296 39.9997 7.87017V32.5775C40 36.545 36.7839 39.7611 32.8164 39.7611Z" fill="#D9D9D9" fill-opacity="0.02"/>
<path d="M29 20.6865C29 22.8947 26.9842 24.6865 24.5 24.6865C22.0158 24.6865 20 22.8947 20 20.6865C20 18.4783 22.0158 16.6865 24.5 16.6865C26.9842 16.6865 29 18.4783 29 20.6865Z" fill="#8E8E93"/>
<path d="M20 6.68652H24.5C26.9842 6.68652 29 8.7023 29 11.1865C29 13.6708 26.9842 15.6865 24.5 15.6865H20V6.68652Z" fill="#8E8E93"/>
<path d="M15 34.6865C17.2082 34.6865 19 32.6708 19 30.1865V25.6865H15C12.7918 25.6865 11 27.7023 11 30.1865C11 32.6708 12.7918 34.6865 15 34.6865Z" fill="#8E8E93"/>
<path d="M11 20.6865C11 18.4783 12.7918 16.6865 15 16.6865H19V24.6865H15C12.7918 24.6865 11 22.8947 11 20.6865Z" fill="#8E8E93"/>
<path d="M11 11.1865C11 8.7023 12.7918 6.68652 15 6.68652H19V15.6865H15C12.7918 15.6865 11 13.6708 11 11.1865Z" fill="#8E8E93"/>
</svg>
