<svg width="39" height="41" viewBox="0 0 39 41" fill="none" xmlns="http://www.w3.org/2000/svg">
<g clip-path="url(#clip0_2273_732)">
<path d="M15.4547 37.8266C13.6282 37.8266 12.1288 36.6519 11.4435 34.6821C10.6843 32.4903 10.2784 30.6924 10.1662 29.0307C9.83668 24.1528 9.65761 19.7381 10.8084 15.1396C10.9135 14.7241 11.0878 14.3182 11.3289 13.929C11.4125 13.7953 11.5558 13.7118 11.7133 13.7022C11.7969 13.6974 11.8852 13.6903 11.9688 13.6783C12.3102 13.6306 12.6469 13.5733 12.9812 13.5184C12.9812 13.5184 13.3297 13.4611 13.473 13.4396L13.6903 13.4038C14.3875 13.2915 15.087 13.1793 15.7985 13.0623C15.8248 13.0576 15.8511 13.0552 15.8749 13.0552C15.9872 13.0552 16.097 13.0958 16.1829 13.1674C16.2904 13.2581 16.3525 13.3894 16.3525 13.5303C16.362 15.0011 16.6628 16.3405 17.2717 17.6274C18.2578 19.6999 20.0461 20.9367 22.0564 20.9367C23.1452 20.9367 24.2339 20.5929 25.2917 19.9148C26.0939 19.399 26.8054 18.7926 27.4047 18.1121C27.493 18.0118 27.6196 17.9522 27.7533 17.9498C27.7557 17.9498 27.7581 17.9498 27.7628 17.9498C27.8942 17.9498 28.0183 18.0047 28.109 18.0978L28.6319 18.6493C29.1357 19.1842 29.6753 19.7572 30.2173 20.3135C30.4226 20.526 30.7521 20.8674 31.2129 21.1086C31.4135 21.2136 31.5114 21.4476 31.4493 21.6649C31.4039 21.8177 31.3514 21.9657 31.2989 22.1042C29.6514 26.5213 25.7238 30.2555 22.2546 33.5528C21.6195 34.1568 21.0202 34.7275 20.4305 35.3029C19.0719 36.628 17.8638 37.3658 16.5148 37.6953C16.1591 37.7836 15.8033 37.8266 15.4547 37.8266Z" fill="#8E8E93"/>
<path d="M24.5919 10.7965C24.5059 10.7965 24.42 10.7869 24.3364 10.7678L23.2238 10.5267C22.868 10.4479 22.572 10.2163 22.4096 9.8892C22.2473 9.5621 22.2449 9.18486 22.3977 8.85537C24.0284 5.37185 26.0197 2.85054 28.6604 0.921349C28.8657 0.77093 29.1092 0.692139 29.3647 0.692139C29.7038 0.692139 30.0285 0.837783 30.2553 1.09087C30.666 1.55168 30.6612 2.23931 30.2457 2.69295L29.8637 3.1084C27.9704 5.15935 26.182 7.09809 25.7761 9.78415C25.726 10.1089 25.5422 10.4025 25.2724 10.5888C25.0694 10.7249 24.8354 10.7965 24.5919 10.7965Z" fill="#8E8E93"/>
<path d="M32.3087 19.9529C31.9291 19.9529 31.6116 19.7022 31.2534 19.3274C30.7186 18.7735 30.1886 18.2124 29.6609 17.6537C29.0449 17.0019 28.4098 16.3262 27.7747 15.6767C27.6553 15.555 27.5765 15.481 27.5216 15.4356C27.4786 15.4953 27.4189 15.5932 27.3306 15.7508C26.6692 16.9446 25.7237 17.9402 24.5228 18.709C23.7014 19.2367 22.8729 19.5041 22.0611 19.5041C20.5952 19.5041 19.3249 18.5944 18.5705 17.0114C17.8231 15.4356 17.6178 13.7046 17.9377 11.7205C17.9616 11.5772 17.9783 11.434 17.995 11.2597C16.3333 11.5271 14.7861 11.7754 13.2437 12.0237C13.079 12.05 12.9142 12.0786 12.7495 12.1049C12.4224 12.1598 12.0977 12.2147 11.7682 12.2601C11.687 12.272 11.6106 12.2768 11.5413 12.2768C11.1235 12.2768 10.8895 12.0953 10.7654 11.9425C10.6341 11.7802 10.498 11.4865 10.5959 11.0137C10.6937 10.5362 10.8012 10.0133 11.0423 9.5573C12.4773 6.84498 14.8768 5.29065 17.625 5.29065C19.9935 5.29065 22.1662 6.47013 23.4364 8.44468C23.5128 8.56406 23.594 8.68105 23.699 8.83386L23.7683 8.93414L24.6589 9.12992C25.0504 9.14902 25.4372 9.1538 25.8121 9.16096C26.6573 9.17529 27.4571 9.18722 28.2522 9.33526C30.0381 9.66952 31.6713 10.806 32.7337 12.4559C33.8177 14.1367 34.1854 16.1375 33.7413 17.9474C33.6554 18.3127 33.5336 18.6589 33.3808 18.9716C33.2137 19.3131 32.9056 19.9529 32.3087 19.9529Z" fill="#8E8E93"/>
</g>
<defs>
<clipPath id="clip0_2273_732">
<rect width="37.6496" height="40" fill="white" transform="translate(0.600098 0.686523)"/>
</clipPath>
</defs>
</svg>
