<svg width="76" height="81" viewBox="0 0 76 81" fill="none" xmlns="http://www.w3.org/2000/svg">
<g clip-path="url(#clip0_955_1093)">
<path d="M37.9998 10.6934C57.0267 10.6934 72.5082 26.1749 72.5082 45.2017C72.5082 64.2286 57.0267 79.7101 37.9998 79.7101C18.973 79.7101 3.49145 64.2286 3.49145 45.2017C3.49145 26.1749 18.973 10.6934 37.9998 10.6934ZM37.9998 9.80591C18.4494 9.80591 2.604 25.6513 2.604 45.2017C2.604 64.7522 18.4494 80.5975 37.9998 80.5975C57.5503 80.5975 73.3957 64.7522 73.3957 45.2017C73.3957 25.6513 57.5503 9.80591 37.9998 9.80591Z" fill="#050406"/>
<path d="M30.0596 74.7897C26.4065 74.7897 23.4077 72.4403 22.0372 68.5007C20.5187 64.1171 19.7069 60.5213 19.4825 57.1978C18.8235 47.442 18.4654 38.6127 20.767 29.4156C20.9771 28.5847 21.3257 27.7729 21.808 26.9946C21.9751 26.7271 22.2617 26.56 22.5768 26.5409C22.744 26.5314 22.9206 26.517 23.0878 26.4932C23.7706 26.3977 24.4439 26.283 25.1125 26.1732C25.1125 26.1732 25.8096 26.0586 26.0962 26.0156L26.5307 25.944C27.9251 25.7196 29.3242 25.4951 30.7472 25.2612C30.7997 25.2516 30.8523 25.2468 30.9 25.2468C31.1245 25.2468 31.3441 25.328 31.516 25.4713C31.7309 25.6527 31.8551 25.9154 31.8551 26.1971C31.8742 29.1386 32.4758 31.8175 33.6935 34.3914C35.6657 38.5362 39.2423 41.0098 43.263 41.0098C45.4405 41.0098 47.618 40.3222 49.7335 38.966C51.3379 37.9346 52.761 36.7217 53.9595 35.3607C54.1362 35.1602 54.3893 35.0408 54.6567 35.036C54.6615 35.036 54.6663 35.036 54.6758 35.036C54.9384 35.036 55.1868 35.1458 55.3682 35.3321L56.414 36.4352C57.4216 37.5048 58.5008 38.6509 59.5847 39.7635C59.9954 40.1885 60.6544 40.8713 61.576 41.3536C61.9771 41.5637 62.1729 42.0317 62.0487 42.4662C61.958 42.7719 61.853 43.0679 61.7479 43.3449C58.453 52.179 50.5978 59.6475 43.6594 66.242C42.3892 67.4502 41.1906 68.5915 40.0111 69.7423C37.294 72.3925 34.8778 73.8681 32.1798 74.527C31.4683 74.7037 30.7568 74.7897 30.0596 74.7897Z" fill="#050406"/>
<path d="M48.3342 20.7295C48.1623 20.7295 47.9904 20.7104 47.8232 20.6722L45.598 20.1899C44.8865 20.0323 44.2943 19.5691 43.9696 18.9149C43.6449 18.2607 43.6401 17.5062 43.9457 16.8472C47.2072 9.88017 51.1898 4.83755 56.4711 0.979173C56.8818 0.678334 57.3689 0.520752 57.8798 0.520752C58.5579 0.520752 59.2073 0.81204 59.661 1.31821C60.4823 2.23983 60.4728 3.61509 59.6419 4.52238L58.8778 5.35327C55.0911 9.45518 51.5145 13.3327 50.7027 18.7048C50.6024 19.3542 50.2347 19.9415 49.6951 20.314C49.2892 20.5862 48.8212 20.7295 48.3342 20.7295Z" fill="#050406"/>
<path d="M63.7679 39.0424C63.0086 39.0424 62.3735 38.541 61.6572 37.7913C60.5876 36.6834 59.5275 35.5612 58.4722 34.4438C57.2402 33.1402 55.97 31.7888 54.6998 30.49C54.461 30.2464 54.3034 30.0984 54.1936 30.0077C54.1076 30.127 53.9883 30.3228 53.8116 30.638C52.4888 33.0256 50.5979 35.0169 48.1959 36.5545C46.5532 37.6098 44.8962 38.1446 43.2727 38.1446C40.3407 38.1446 37.8003 36.3253 36.2913 33.1593C34.7967 30.0077 34.386 26.5456 35.0259 22.5774C35.0736 22.2909 35.1071 22.0044 35.1405 21.6558C31.8169 22.1906 28.7226 22.6873 25.6378 23.1839C25.3083 23.2364 24.9788 23.2937 24.6493 23.3462C23.9951 23.4561 23.3457 23.5659 22.6867 23.6566C22.5244 23.6805 22.3716 23.6901 22.2331 23.6901C21.3974 23.6901 20.9294 23.3271 20.6811 23.0215C20.4185 22.6968 20.1463 22.1095 20.3421 21.164C20.5379 20.2089 20.7528 19.1631 21.2351 18.2511C24.105 12.8264 28.9041 9.71777 34.4003 9.71777C39.1373 9.71777 43.4828 12.0767 46.0232 16.0258C46.176 16.2646 46.3384 16.4986 46.5485 16.8042L46.6869 17.0048L48.4681 17.3963C49.2512 17.4345 50.0248 17.4441 50.7745 17.4584C52.465 17.487 54.0647 17.5109 55.6548 17.807C59.2267 18.4755 62.4929 20.7485 64.6179 24.0482C66.7858 27.4099 67.5212 31.4116 66.633 35.0312C66.4611 35.7618 66.2176 36.4542 65.912 37.0798C65.5777 37.7626 64.9617 39.0424 63.7679 39.0424Z" fill="#050406"/>
</g>
<defs>
<clipPath id="clip0_955_1093">
<rect width="75.2991" height="80" fill="white" transform="translate(0.350342 0.509521)"/>
</clipPath>
</defs>
</svg>
