<svg width="39" height="41" viewBox="0 0 39 41" fill="none" xmlns="http://www.w3.org/2000/svg">
<g clip-path="url(#clip0_1826_3223)">
<path d="M15.2546 37.8266C13.4281 37.8266 11.9286 36.6519 11.2434 34.6821C10.4841 32.4903 10.0783 30.6924 9.96603 29.0307C9.63654 24.1528 9.45747 19.7381 10.6083 15.1396C10.7134 14.7241 10.8876 14.3182 11.1288 13.929C11.2124 13.7953 11.3556 13.7118 11.5132 13.7022C11.5968 13.6974 11.6851 13.6903 11.7687 13.6783C12.1101 13.6306 12.4468 13.5733 12.781 13.5184C12.781 13.5184 13.1296 13.4611 13.2729 13.4396L13.4901 13.4038C14.1873 13.2915 14.8869 13.1793 15.5984 13.0623C15.6247 13.0576 15.6509 13.0552 15.6748 13.0552C15.787 13.0552 15.8968 13.0958 15.9828 13.1674C16.0902 13.2581 16.1523 13.3894 16.1523 13.5303C16.1619 15.0011 16.4627 16.3405 17.0716 17.6274C18.0576 19.6999 19.846 20.9367 21.8563 20.9367C22.9451 20.9367 24.0338 20.5929 25.0915 19.9148C25.8938 19.399 26.6053 18.7926 27.2046 18.1121C27.2929 18.0118 27.4194 17.9522 27.5531 17.9498C27.5555 17.9498 27.5579 17.9498 27.5627 17.9498C27.694 17.9498 27.8182 18.0047 27.9089 18.0978L28.4318 18.6493C28.9356 19.1842 29.4752 19.7572 30.0172 20.3135C30.2225 20.526 30.552 20.8674 31.0128 21.1086C31.2133 21.2136 31.3112 21.4476 31.2492 21.6649C31.2038 21.8177 31.1513 21.9657 31.0987 22.1042C29.4513 26.5213 25.5237 30.2555 22.0545 33.5528C21.4194 34.1568 20.8201 34.7275 20.2304 35.3029C18.8718 36.628 17.6637 37.3658 16.3147 37.6953C15.9589 37.7836 15.6032 37.8266 15.2546 37.8266Z" fill="#D9D9D9" fill-opacity="0.75"/>
<path d="M24.3919 10.7965C24.306 10.7965 24.22 10.7869 24.1365 10.7678L23.0238 10.5267C22.6681 10.4479 22.372 10.2163 22.2097 9.8892C22.0473 9.5621 22.0449 9.18486 22.1977 8.85537C23.8285 5.37185 25.8197 2.85054 28.4604 0.921349C28.6658 0.77093 28.9093 0.692139 29.1648 0.692139C29.5038 0.692139 29.8285 0.837783 30.0553 1.09087C30.466 1.55168 30.4612 2.23931 30.0458 2.69295L29.6638 3.1084C27.7704 5.15935 25.9821 7.09809 25.5762 9.78415C25.5261 10.1089 25.3422 10.4025 25.0724 10.5888C24.8695 10.7249 24.6355 10.7965 24.3919 10.7965Z" fill="#D9D9D9" fill-opacity="0.75"/>
<path d="M32.1087 19.9529C31.7291 19.9529 31.4116 19.7022 31.0534 19.3274C30.5186 18.7735 29.9885 18.2124 29.4609 17.6537C28.8449 17.0019 28.2098 16.3262 27.5747 15.6767C27.4553 15.555 27.3765 15.481 27.3216 15.4356C27.2786 15.4953 27.2189 15.5932 27.1306 15.7508C26.4692 16.9446 25.5237 17.9402 24.3228 18.709C23.5014 19.2367 22.6729 19.5041 21.8611 19.5041C20.3951 19.5041 19.1249 18.5944 18.3704 17.0114C17.6231 15.4356 17.4178 13.7046 17.7377 11.7205C17.7616 11.5772 17.7783 11.434 17.795 11.2597C16.1333 11.5271 14.5861 11.7754 13.0437 12.0237C12.879 12.05 12.7142 12.0786 12.5495 12.1049C12.2224 12.1598 11.8976 12.2147 11.5682 12.2601C11.487 12.272 11.4106 12.2768 11.3413 12.2768C10.9235 12.2768 10.6895 12.0953 10.5654 11.9425C10.434 11.7802 10.2979 11.4865 10.3958 11.0137C10.4937 10.5362 10.6012 10.0133 10.8423 9.5573C12.2773 6.84498 14.6768 5.29065 17.425 5.29065C19.7935 5.29065 21.9662 6.47013 23.2364 8.44468C23.3128 8.56406 23.394 8.68105 23.499 8.83386L23.5683 8.93414L24.4588 9.12992C24.8504 9.14902 25.2372 9.1538 25.6121 9.16096C26.4573 9.17529 27.2571 9.18722 28.0522 9.33526C29.8381 9.66952 31.4712 10.806 32.5337 12.4559C33.6177 14.1367 33.9854 16.1375 33.5413 17.9474C33.4553 18.3127 33.3336 18.6589 33.1808 18.9716C33.0136 19.3131 32.7056 19.9529 32.1087 19.9529Z" fill="#D9D9D9" fill-opacity="0.75"/>
</g>
<defs>
<clipPath id="clip0_1826_3223">
<rect width="37.6496" height="40" fill="white" transform="translate(0.400024 0.686523)"/>
</clipPath>
</defs>
</svg>
