<svg width="72" height="81" viewBox="0 0 72 81" fill="none" xmlns="http://www.w3.org/2000/svg">
<g clip-path="url(#clip0_1503_288)">
<path d="M35.9999 24.5497H23.5752L24.4216 33.1604H35.9999V41.9812H16.4241L15.5589 33.1604L14.7125 24.5497L13.9144 16.4136V15.7289H35.9999V24.5497Z" fill="#050406"/>
<path d="M35.9663 55.7352L35.9999 55.7268V64.8647L35.9663 64.8731L27.3052 62.5356L18.2009 60.0763L17.2789 50.6927V50.6906L16.8568 46.3915H25.7196L26.3832 53.1478V53.1499L35.9663 55.7352Z" fill="#050406"/>
<path d="M35.9999 0.607666H0.519531L7.2359 72.2469L35.9999 80.6077V74.0467L13.108 67.3933L7.43752 6.9082H35.9999V0.607666Z" fill="#050406"/>
<path d="M71.4804 0.607666L64.764 72.2469L36 80.6077V74.0467L58.8919 67.3933L64.5624 6.9082H36V0.607666H71.4804Z" fill="#050406"/>
<path d="M56.3738 33.1605L55.5086 41.9812L54.6538 50.6907V50.6928L53.7318 60.0764L44.6275 62.5357L36 64.8648V55.7269L45.5495 53.15V53.1479L46.6458 41.9812H36V33.1605H56.3738Z" fill="#050406"/>
<path d="M58.0855 15.7289L57.2202 24.5497H36V15.7289H58.0855Z" fill="#050406"/>
</g>
<defs>
<clipPath id="clip0_1503_288">
<rect width="70.9608" height="80" fill="white" transform="translate(0.519531 0.607666)"/>
</clipPath>
</defs>
</svg>
