<svg width="37" height="41" viewBox="0 0 37 41" fill="none" xmlns="http://www.w3.org/2000/svg">
<g clip-path="url(#clip0_1826_3264)">
<path d="M36.28 0.373047L32.924 36.193L18.54 40.373L4.15605 36.193L0.800049 0.373047H36.28Z" fill="#D9D9D9" fill-opacity="0.05"/>
<path d="M29.148 12.4971L29.584 8.08508H7.49603V8.42908L7.89603 12.4971L8.32003 16.8011L8.75203 21.2131H18.54H23.54H23.864L23.316 26.7971L18.54 28.0851L18.524 28.0891L13.732 26.7971L13.4 23.4171H8.96803L9.18003 25.5691L9.64003 30.2611L14.192 31.4891L18.524 32.6571H18.536L22.852 31.4891L27.404 30.2611L27.868 25.5691L28.292 21.2131L28.728 16.8011H23.54H12.752L12.328 12.4971H29.148Z" fill="#D9D9D9" fill-opacity="0.75"/>
</g>
<defs>
<clipPath id="clip0_1826_3264">
<rect width="35.48" height="40" fill="white" transform="translate(0.800049 0.373047)"/>
</clipPath>
</defs>
</svg>
