<svg width="36" height="41" viewBox="0 0 36 41" fill="none" xmlns="http://www.w3.org/2000/svg">
<g clip-path="url(#clip0_2273_773)">
<path d="M35.68 0.373047L32.324 36.1931L17.94 40.373L3.55595 36.1931L0.199951 0.373047H35.68Z" fill="#D9D9D9" fill-opacity="0.02"/>
<path d="M28.548 12.4971L28.984 8.08508H6.896V8.42908L7.296 12.4971L7.72 16.8011L8.152 21.2131H17.94H22.94H23.264L22.716 26.7971L17.94 28.0851L17.924 28.0891L13.132 26.7971L12.8 23.4171H8.368L8.58 25.5691L9.04 30.2611L13.592 31.4891L17.924 32.6571H17.936L22.252 31.4891L26.804 30.2611L27.268 25.5691L27.692 21.2131L28.128 16.8011H22.94H12.152L11.728 12.4971H28.548Z" fill="#8E8E93"/>
</g>
<defs>
<clipPath id="clip0_2273_773">
<rect width="35.48" height="40" fill="white" transform="translate(0.199951 0.373047)"/>
</clipPath>
</defs>
</svg>
