<?xml version="1.0" encoding="utf-8"?>
<!-- Generator: Adobe Illustrator 24.3.0, SVG Export Plug-In . SVG Version: 6.00 Build 0)  -->
<svg version="1.1" id="Layer_1" xmlns="http://www.w3.org/2000/svg" xmlns:xlink="http://www.w3.org/1999/xlink" x="0px" y="0px"
	 viewBox="0 0 101 98" style="enable-background:new 0 0 101 98;" xml:space="preserve">
<style type="text/css">
	.st0{fill:none;stroke:#0E0E0E;stroke-miterlimit:10;}
	.st1{fill:#0E0E0E;}
</style>
<path class="st0" d="M91.6,23.2v51.6c0,7.7-6.2,13.9-13.9,13.9H23.3c-7.7,0-13.9-6.2-13.9-13.9V23.2c0-7.7,6.2-13.9,13.9-13.9h54.4
	C85.4,9.3,91.6,15.5,91.6,23.2z"/>
<path class="st1" d="M33.8,19.2c0,0-0.1,0-0.1,0h-7.8c-1,0-1.6,0.6-1.6,1.6v54c0,1,0.6,1.6,1.6,1.6h7.7c0.4,0,0.9,0,1.3-0.4
	c0.3-0.3,0.4-0.8,0.4-1.2V20.7C35.3,19.9,34.7,19.2,33.8,19.2z"/>
<path class="st1" d="M76.9,72.7c-0.2-1.9-0.3-3.6-0.3-5V20.6c0-0.4-0.1-0.7-0.4-1l0,0c-0.3-0.3-0.7-0.3-1-0.3H67
	c-0.3,0-0.6,0.1-0.9,0.3c-0.2,0.2-0.6,0.5-0.6,1.2V33c-0.1,0-0.2,0-0.3,0h-1.4c-6.6,0-11.9,2.2-15.8,6.5c-3.9,4.3-5.8,9.6-5.8,15.9
	c0,7.3,1.9,12.8,5.7,16.4c3.8,3.6,8.6,5.5,14.4,5.5c4.4,0,9-1,13.6-3.1c0.2-0.1,0.3-0.2,0.5-0.3C76.6,73.7,76.9,73.4,76.9,72.7
	L76.9,72.7L76.9,72.7z M65.5,67c-0.8,0.2-1.7,0.3-2.6,0.3c-2.6,0-4.8-0.9-6.7-2.8c-1.8-1.9-2.8-5.1-2.8-9.5c0-3.9,0.9-7,2.8-9.1
	c1.9-2.2,4.2-3.2,7.2-3.2c0.8,0,1.5,0.1,2,0.2V67z"/>
</svg>
