<svg width="89" height="101" viewBox="0 0 89 101" fill="none" xmlns="http://www.w3.org/2000/svg">
<g clip-path="url(#clip0_964_761)">
<path d="M44.4999 0.00952148H0.149414L8.54488 89.5585L44.4999 100.01V91.8083L15.885 83.4916L8.7969 7.88519H44.4999V0.00952148Z" fill="#0E0E0E" fill-opacity="0.8"/>
<path d="M40.948 19.2236H32.3347V68.99L25.6351 67.7141V61.0146L17.6597 59.7387V74.7314L40.948 80.793V19.2236Z" fill="#0E0E0E" fill-opacity="0.8"/>
<path d="M88.8505 0.00952148L80.4551 89.5585L44.5 100.01V91.8083L73.1149 83.4916L80.203 7.88519H44.5V0.00952148H88.8505Z" fill="#0E0E0E" fill-opacity="0.75"/>
<path d="M47.4114 19.2236H71.2563L69.6601 28.7637H56.513V44.4153H69.6601L68.064 76.0098L47.4114 80.793V70.9038L61.3644 66.1206L62.1704 53.0391L47.4114 55.1787V19.2236Z" fill="#0E0E0E" fill-opacity="0.75"/>
</g>
<defs>
<clipPath id="clip0_964_761">
<rect width="88.701" height="100" fill="white" transform="translate(0.149414 0.00952148)"/>
</clipPath>
</defs>
</svg>
