<svg width="41" height="40" viewBox="0 0 41 40" fill="none" xmlns="http://www.w3.org/2000/svg">
<g clip-path="url(#clip0_1826_3164)">
<path d="M36.453 39.0746H4.74697C2.45657 39.0746 0.599976 37.218 0.599976 34.9276V4.14699C0.599976 1.85659 2.45657 0 4.74697 0H36.453C38.7434 0 40.6 1.85659 40.6 4.14699V34.9276C40.6 37.218 38.7434 39.0746 36.453 39.0746Z" fill="#D9D9D9" fill-opacity="0.05"/>
<path d="M13.538 24.6266V10.5782H9.66827V24.6266V28.4964H13.538H21.5295V24.6266H13.538Z" fill="#D9D9D9" fill-opacity="0.75"/>
<path d="M31.5317 14.7711V18.5417C31.1582 18.4507 30.7706 18.4042 30.3707 18.4042C29.1041 18.4042 27.9466 18.8758 27.0661 19.6527V28.4964H23.1364V14.9212H27.0661V16.6519C27.9805 15.4889 29.4007 14.7424 30.9959 14.7424C31.1763 14.7424 31.3567 14.7514 31.5317 14.7711Z" fill="#D9D9D9" fill-opacity="0.75"/>
</g>
<defs>
<clipPath id="clip0_1826_3164">
<rect width="40" height="39.0746" fill="white" transform="translate(0.599976)"/>
</clipPath>
</defs>
</svg>
