<svg width="41" height="40" viewBox="0 0 41 40" fill="none" xmlns="http://www.w3.org/2000/svg">
<g clip-path="url(#clip0_2273_673)">
<path d="M36.4531 39.0746H4.74709C2.45669 39.0746 0.600098 37.218 0.600098 34.9276V4.14699C0.600098 1.85659 2.45669 0 4.74709 0H36.4531C38.7435 0 40.6001 1.85659 40.6001 4.14699V34.9276C40.6001 37.218 38.7435 39.0746 36.4531 39.0746Z" fill="#D9D9D9" fill-opacity="0.02"/>
<path d="M13.5382 24.6266V10.5782H9.66846V24.6266V28.4964H13.5382H21.5297V24.6266H13.5382Z" fill="#8E8E93"/>
<path d="M31.5318 14.771V18.5417C31.1584 18.4507 30.7707 18.4042 30.3708 18.4042C29.1042 18.4042 27.9468 18.8757 27.0662 19.6527V28.4963H23.1365V14.9211H27.0662V16.6518C27.9807 15.4889 29.4009 14.7423 30.996 14.7423C31.1764 14.7423 31.3569 14.7513 31.5318 14.771Z" fill="#8E8E93"/>
</g>
<defs>
<clipPath id="clip0_2273_673">
<rect width="40" height="39.0746" fill="white" transform="translate(0.600098)"/>
</clipPath>
</defs>
</svg>
