<svg width="41" height="40" viewBox="0 0 41 40" fill="none" xmlns="http://www.w3.org/2000/svg">
<g clip-path="url(#clip0_2273_663)">
<path d="M33.0163 39.0746H7.38359C3.41639 39.0746 0.199951 35.8585 0.199951 31.891V7.18364C0.199951 3.21644 3.41639 0 7.38359 0H33.016C36.9835 0 40.1996 3.21644 40.1996 7.18364V31.891C40.2 35.8585 36.9838 39.0746 33.0163 39.0746Z" fill="#D9D9D9" fill-opacity="0.02"/>
<path d="M15.2264 10.8517H8.70703V28.223H12.3663V22.7972H15.2264C16.8758 22.7972 18.3689 22.1284 19.4499 21.0478C20.5305 19.9668 21.1993 18.4737 21.1993 16.8243C21.199 13.5262 18.5248 10.8517 15.2264 10.8517ZM16.7567 18.8174C16.2464 19.3271 15.5421 19.6427 14.7639 19.6427H12.3663V14.0065H14.7639C16.3203 14.0065 17.582 15.2682 17.582 16.8246C17.5817 17.6025 17.2663 18.3071 16.7567 18.8174Z" fill="#8E8E93"/>
<path d="M27.0453 16.619V14.9315H23.5542V28.2227H27.0453V20.6608C27.0453 20.0278 27.3503 19.43 27.871 19.0701C29.275 18.1005 31.6929 18.2332 31.6929 18.2332V14.5742C28.6647 14.5742 27.0453 16.619 27.0453 16.619Z" fill="#8E8E93"/>
</g>
<defs>
<clipPath id="clip0_2273_663">
<rect width="40" height="39.0746" fill="white" transform="translate(0.199951)"/>
</clipPath>
</defs>
</svg>
