<?xml version="1.0" encoding="utf-8"?>
<!-- Generator: Adobe Illustrator 24.3.0, SVG Export Plug-In . SVG Version: 6.00 Build 0)  -->
<svg version="1.1" id="Layer_1" xmlns="http://www.w3.org/2000/svg" xmlns:xlink="http://www.w3.org/1999/xlink" x="0px" y="0px"
	 viewBox="0 0 101 98" style="enable-background:new 0 0 101 98;" xml:space="preserve">
<style type="text/css">
	.st0{fill:none;stroke:#000000;stroke-miterlimit:10;}
</style>
<path class="st0" d="M77.7,88.7H23.3c-7.7,0-13.9-6.2-13.9-13.9V23.2c0-7.7,6.2-13.9,13.9-13.9h54.4c7.7,0,13.9,6.2,13.9,13.9v51.6
	C91.6,82.5,85.4,88.7,77.7,88.7z"/>
<path d="M79.3,34.2L79.3,34.2c-0.3-0.2-0.6-0.3-1-0.3c-3.9,0-7.5,0.4-10.7,1.2c-3.2,0.8-5.5,1.5-7,2.2c-0.2,0.1-0.4,0.2-0.6,0.4
	c-0.3,0.3-0.4,0.7-0.4,1.1v0.1c0.1,2.4,0.2,4,0.2,4.5v30c0,0.9,0.6,1.5,1.4,1.5c0.1,0,0.1,0,0.2,0h7.3c1.1,0,1.6-0.7,1.6-1.4V44.2
	c0.6-0.2,1.6-0.4,3-0.5c1.4-0.1,2.7-0.2,4.1-0.2c0.3,0,0.6,0,0.8,0c0.4,0,0.7-0.1,0.9-0.3c0.2-0.2,0.5-0.5,0.5-1.1v-6.8
	C79.8,34.8,79.6,34.4,79.3,34.2z"/>
<path d="M50,25.8c-3.2-3.4-8.2-5.1-15.1-5.1c-4.6,0-8.7,0.1-12.1,0.3c-0.8,0-1.1,0.4-1.2,0.7c-0.1,0.2-0.2,0.5-0.2,0.8v50.8
	c0,0.9,0.6,1.5,1.5,1.5c0,0,0.1,0,0.2,0h7.2c0.9,0,1.5-0.6,1.5-1.4V56.1c0.2,0,0.3,0,0.5,0c0.5,0,1.3,0.1,2.2,0.1
	c3.6,0,7-0.6,10.1-1.9c3.1-1.3,5.6-3.3,7.5-5.9c1.9-2.7,2.8-6.1,2.8-10.3C54.7,33.2,53.1,29.1,50,25.8z M41.5,44.9
	c-2,1.2-4.4,1.8-6.9,1.8c-1,0-1.7,0-2.2,0c-0.2,0-0.5,0-0.7,0V30.2c1-0.1,2.2-0.1,3.5-0.1c3,0,5.2,0.7,6.8,2c1.5,1.3,2.3,3.3,2.3,6
	C44.3,41.6,43.3,43.8,41.5,44.9z"/>
</svg>
