<svg width="41" height="40" viewBox="0 0 41 40" fill="none" xmlns="http://www.w3.org/2000/svg">
<g clip-path="url(#clip0_1826_3154)">
<path d="M33.0163 39.0746H7.38359C3.41639 39.0746 0.199951 35.8585 0.199951 31.891V7.18364C0.199951 3.21644 3.41639 0 7.38359 0H33.016C36.9835 0 40.1996 3.21644 40.1996 7.18364V31.891C40.2 35.8585 36.9838 39.0746 33.0163 39.0746Z" fill="#D9D9D9" fill-opacity="0.05"/>
<path d="M15.2263 10.8516H8.70697V28.223H12.3663V22.7971H15.2263C16.8757 22.7971 18.3689 22.1284 19.4498 21.0477C20.5305 19.9667 21.1993 18.4736 21.1993 16.8242C21.1989 13.5261 18.5248 10.8516 15.2263 10.8516ZM16.7566 18.8173C16.2463 19.327 15.542 19.6427 14.7638 19.6427H12.3663V14.0064H14.7638C16.3202 14.0064 17.5819 15.2681 17.5819 16.8245C17.5816 17.6024 17.2663 18.307 16.7566 18.8173Z" fill="#D9D9D9" fill-opacity="0.75"/>
<path d="M27.0453 16.6189V14.9315H23.5542V28.2226H27.0453V20.6607C27.0453 20.0277 27.3503 19.43 27.871 19.0701C29.275 18.1005 31.6929 18.2331 31.6929 18.2331V14.5742C28.6647 14.5742 27.0453 16.6189 27.0453 16.6189Z" fill="#D9D9D9" fill-opacity="0.75"/>
</g>
<defs>
<clipPath id="clip0_1826_3154">
<rect width="40" height="39.0746" fill="white" transform="translate(0.199951)"/>
</clipPath>
</defs>
</svg>
