<svg width="40" height="40" viewBox="0 0 40 40" fill="none" xmlns="http://www.w3.org/2000/svg">
<g clip-path="url(#clip0_1826_3119)">
<path d="M32.8164 39.0746H7.18364C3.21644 39.0746 0 35.8585 0 31.891V7.18364C0 3.21644 3.21644 0 7.18364 0H32.816C36.7836 0 39.9997 3.21644 39.9997 7.18364V31.891C40 35.8585 36.7839 39.0746 32.8164 39.0746Z" fill="#050406"/>
<path d="M15.6887 10.0105H9.16934V27.3818H12.8286V21.956H15.6887C17.3381 21.956 18.8312 21.2872 19.9122 20.2066C20.9928 19.1256 21.6616 17.6325 21.6616 15.9831C21.6613 12.6847 18.9871 10.0105 15.6887 10.0105ZM17.219 17.9762C16.7087 18.4859 16.0044 18.8015 15.2262 18.8015H12.8286V13.1653H15.2262C16.7826 13.1653 18.0443 14.427 18.0443 15.9834C18.0443 16.7613 17.7286 17.4659 17.219 17.9762Z" fill="#D6D5DB"/>
<path d="M33.081 23.4869C33.081 24.6399 32.5433 25.7402 31.6947 26.5091C30.7383 27.3757 29.4101 27.7453 28.1474 27.8415C27.9961 27.8531 27.8447 27.8602 27.693 27.8634C26.2899 27.8921 24.8148 27.5936 23.5399 27.0045C23.5263 26.9984 23.5127 26.9919 23.4992 26.9858C23.5014 25.9629 23.5034 24.9404 23.5056 23.9175C23.5056 23.9733 24.5198 24.2187 24.6457 24.26C25.8031 24.6396 27.1846 24.9239 28.4041 24.7677C28.6616 24.7348 28.9263 24.6705 29.1258 24.5046C29.8778 23.8801 29.1154 23.1032 28.5025 22.8049C27.8376 22.4818 27.1217 22.2775 26.4429 21.9854C25.7993 21.7088 25.1854 21.3495 24.6728 20.8718C22.9769 19.2915 23.0428 16.638 24.7712 15.1032C25.7499 14.2343 27.0713 13.9583 28.3472 13.9022C29.6677 13.8441 31.0008 14.0794 32.2228 14.5823C32.2696 14.6016 32.3193 14.6239 32.3454 14.6672C32.3677 14.7043 32.3684 14.7498 32.3684 14.7927C32.3696 15.8369 32.3709 16.8814 32.3719 17.9255C32.1728 17.7554 31.9007 17.6851 31.6644 17.5818C31.4084 17.4698 31.147 17.3713 30.881 17.2858C29.9392 16.984 28.7162 16.7055 27.7495 17.0366C27.3941 17.1583 27.1294 17.4114 27.1294 17.8048C27.1294 18.4133 27.7259 18.706 28.2133 18.9284C28.8172 19.2037 29.4611 19.3712 30.0634 19.6504C31.6276 20.3767 33.081 21.6207 33.081 23.4869Z" fill="#D6D5DB"/>
</g>
<defs>
<clipPath id="clip0_1826_3119">
<rect width="40" height="39.0746" fill="white"/>
</clipPath>
</defs>
</svg>
