<svg width="40" height="40" viewBox="0 0 40 40" fill="none" xmlns="http://www.w3.org/2000/svg">
<g clip-path="url(#clip0_2273_628)">
<path d="M32.8164 39.0746H7.18364C3.21644 39.0746 0 35.8585 0 31.891V7.18364C0 3.21644 3.21644 0 7.18364 0H32.816C36.7836 0 39.9997 3.21644 39.9997 7.18364V31.891C40 35.8585 36.7839 39.0746 32.8164 39.0746Z" fill="#D9D9D9" fill-opacity="0.02"/>
<path d="M15.6888 10.0105H9.16943V27.3818H12.8287V21.956H15.6888C17.3382 21.956 18.8313 21.2872 19.9123 20.2066C20.9929 19.1256 21.6617 17.6325 21.6617 15.9831C21.6614 12.6847 18.9872 10.0105 15.6888 10.0105ZM17.2191 17.9762C16.7088 18.4859 16.0045 18.8015 15.2263 18.8015H12.8287V13.1653H15.2263C16.7827 13.1653 18.0444 14.427 18.0444 15.9834C18.0444 16.7613 17.7287 17.4659 17.2191 17.9762Z" fill="#8E8E93"/>
<path d="M33.0811 23.487C33.0811 24.6399 32.5434 25.7402 31.6948 26.5091C30.7384 27.3757 29.4102 27.7453 28.1475 27.8415C27.9962 27.8531 27.8448 27.8602 27.6931 27.8634C26.29 27.8922 24.8149 27.5936 23.5399 27.0045C23.5264 26.9984 23.5128 26.992 23.4993 26.9858C23.5015 25.963 23.5035 24.9404 23.5057 23.9175C23.5057 23.9734 24.5199 24.2187 24.6458 24.26C25.8032 24.6396 27.1847 24.9239 28.4041 24.7677C28.6617 24.7348 28.9264 24.6706 29.1259 24.5047C29.8779 23.8801 29.1155 23.1032 28.5026 22.8049C27.8377 22.4818 27.1218 22.2775 26.443 21.9854C25.7994 21.7088 25.1854 21.3496 24.6729 20.8719C22.977 19.2916 23.0429 16.638 24.7713 15.1032C25.75 14.2343 27.0714 13.9584 28.3473 13.9022C29.6678 13.8441 31.0009 14.0794 32.2229 14.5823C32.2697 14.6017 32.3194 14.6239 32.3455 14.6672C32.3678 14.7043 32.3684 14.7498 32.3684 14.7927C32.3697 15.8369 32.371 16.8814 32.372 17.9256C32.1728 17.7555 31.9007 17.6851 31.6645 17.5818C31.4085 17.4698 31.1471 17.3714 30.8811 17.2858C29.9393 16.984 28.7163 16.7055 27.7496 17.0367C27.3942 17.1583 27.1295 17.4114 27.1295 17.8049C27.1295 18.4133 27.726 18.706 28.2134 18.9284C28.8173 19.2038 29.4612 19.3713 30.0635 19.6505C31.6277 20.3767 33.0811 21.6207 33.0811 23.487Z" fill="#8E8E93"/>
</g>
<defs>
<clipPath id="clip0_2273_628">
<rect width="40" height="39.0746" fill="white"/>
</clipPath>
</defs>
</svg>
