<svg width="41" height="41" viewBox="0 0 41 41" fill="none" xmlns="http://www.w3.org/2000/svg">
<path opacity="0.9" d="M1.97061 14.7017C1.97061 14.7017 1.07235 14.0551 2.14987 13.191L4.66153 10.9471C4.66153 10.9471 5.38052 10.1927 6.13999 10.8489L29.327 28.3752V36.7794C29.327 36.7794 29.3155 38.0996 27.6192 37.9534L1.97061 14.7017Z" fill="#8E8E93"/>
<path d="M7.9483 20.1191L1.97275 25.5443C1.97275 25.5443 1.35785 26.0004 1.97275 26.8144L4.74656 29.3336C4.74656 29.3336 5.4058 30.0399 6.37924 29.2354L12.7152 24.4396L7.9483 20.1191Z" fill="#8E8E93"/>
<path d="M18.44 20.1634L29.4003 11.8073L29.329 3.44734C29.329 3.44734 28.8606 1.62293 27.2992 2.5717L12.7131 15.8256L18.44 20.1634Z" fill="#8E8E93"/>
<path opacity="0.8" d="M27.6212 37.9668C28.2573 38.6173 29.0284 38.4037 29.0284 38.4037L37.5695 34.2006C38.6625 33.4558 38.5102 32.534 38.5102 32.534V7.44063C38.5102 6.3379 37.3787 5.95685 37.3787 5.95685L29.9767 2.39463C28.3595 1.39582 27.2993 2.57361 27.2993 2.57361C27.2993 2.57361 28.6621 1.59404 29.3291 3.44925V36.6293C29.3291 36.8564 29.2809 37.0816 29.1826 37.2836C28.9879 37.6762 28.5638 38.0419 27.5499 37.8898L27.6212 37.9668Z" fill="#8E8E93"/>
</svg>
