<svg width="41" height="41" viewBox="0 0 41 41" fill="none" xmlns="http://www.w3.org/2000/svg">
<path opacity="0.9" d="M1.97073 14.7017C1.97073 14.7017 1.07247 14.0551 2.14999 13.191L4.66165 10.9471C4.66165 10.9471 5.38064 10.1927 6.14012 10.8489L29.3272 28.3752V36.7794C29.3272 36.7794 29.3156 38.0996 27.6193 37.9534L1.97073 14.7017Z" fill="#D6D5DB"/>
<path d="M7.94821 20.1191L1.97266 25.5443C1.97266 25.5443 1.35776 26.0004 1.97266 26.8144L4.74647 29.3336C4.74647 29.3336 5.40571 30.0399 6.37915 29.2354L12.7152 24.4396L7.94821 20.1191Z" fill="#D6D5DB"/>
<path d="M18.4401 20.1634L29.4004 11.8073L29.3291 3.44734C29.3291 3.44734 28.8607 1.62293 27.2993 2.5717L12.7132 15.8256L18.4401 20.1634Z" fill="#D6D5DB"/>
<path opacity="0.8" d="M27.6213 37.9668C28.2574 38.6173 29.0284 38.4037 29.0284 38.4037L37.5696 34.2006C38.6625 33.4558 38.5102 32.534 38.5102 32.534V7.44063C38.5102 6.3379 37.3787 5.95685 37.3787 5.95685L29.9768 2.39463C28.3595 1.39582 27.2993 2.57361 27.2993 2.57361C27.2993 2.57361 28.6622 1.59404 29.3291 3.44925V36.6293C29.3291 36.8564 29.2809 37.0816 29.1826 37.2836C28.9879 37.6762 28.5639 38.0419 27.5499 37.8898L27.6213 37.9668Z" fill="#D6D5DB"/>
</svg>
