<svg width="101" height="100" viewBox="0 0 101 100" fill="none" xmlns="http://www.w3.org/2000/svg">
<path opacity="0.9" d="M1.95797 35.2237C1.95797 35.2237 -0.451292 33.4893 2.43879 31.1717L9.17543 25.1531C9.17543 25.1531 11.1039 23.1297 13.1409 24.8898L75.332 71.8979V94.4393C75.332 94.4393 75.301 97.9803 70.7513 97.588L1.95797 35.2237Z" fill="#0E0E0E" fill-opacity="0.5"/>
<path d="M17.9905 49.7539L1.96323 64.3049C1.96323 64.3049 0.313969 65.5282 1.96323 67.7116L9.403 74.4684C9.403 74.4684 11.1712 76.3627 13.7821 74.2051L30.7762 61.342L17.9905 49.7539Z" fill="#0E0E0E" fill-opacity="0.75"/>
<path d="M46.1314 49.8727L75.5285 27.4603L75.3372 5.03769C75.3372 5.03769 74.0809 0.144347 69.8931 2.68909L30.771 38.2381L46.1314 49.8727Z" fill="#0E0E0E" fill-opacity="0.75"/>
<path opacity="0.8" d="M70.7565 97.6241C72.4626 99.3688 74.5306 98.7958 74.5306 98.7958L97.4393 87.5226C100.371 85.525 99.9624 83.0525 99.9624 83.0525V15.7484C99.9624 12.7907 96.9275 11.7687 96.9275 11.7687L77.0743 2.21425C72.7366 -0.464701 69.8931 2.69429 69.8931 2.69429C69.8931 2.69429 73.5483 0.0669599 75.3372 5.04289V94.0367C75.3372 94.6458 75.2079 95.2497 74.9443 95.7917C74.4221 96.8447 73.2847 97.8254 70.5652 97.4176L70.7565 97.6241Z" fill="#0E0E0E" fill-opacity="0.65"/>
</svg>
