<?xml version="1.0" encoding="utf-8"?>
<!-- Generator: Adobe Illustrator 24.3.0, SVG Export Plug-In . SVG Version: 6.00 Build 0)  -->
<svg version="1.1" id="Layer_1" xmlns="http://www.w3.org/2000/svg" xmlns:xlink="http://www.w3.org/1999/xlink" x="0px" y="0px"
	 viewBox="0 0 101 98" style="enable-background:new 0 0 101 98;" xml:space="preserve">
<style type="text/css">
	.st0{fill:none;stroke:#0E0E0E;stroke-miterlimit:10;}
</style>
<path d="M84.7,68.4c-0.1-1.7-0.2-3.1-0.2-4.3V23.2c0-0.4-0.2-0.7-0.3-0.9c-0.4-0.4-0.9-0.4-1.1-0.4h-7.3c-0.4,0-0.7,0.1-0.9,0.4l0,0
	c-0.2,0.2-0.3,0.5-0.3,1v10.6c0,0-0.1,0-0.2,0c-0.3,0-0.8,0-1.2,0c-5.8,0-10.4,1.9-13.7,5.7c-3.3,3.8-5,8.4-5,13.8
	c0,6.3,1.7,11.2,5,14.3c3.3,3.2,7.5,4.8,12.6,4.8c3.8,0,7.8-0.9,11.8-2.7c0.6-0.2,0.8-0.6,0.8-0.8l0-0.1
	C84.7,68.9,84.7,68.7,84.7,68.4L84.7,68.4L84.7,68.4z M74.4,63.4c-0.7,0.2-1.4,0.2-2.2,0.2c-2.3,0-4.1-0.8-5.6-2.4
	c-1.5-1.6-2.3-4.4-2.3-8.2c0-6.7,2.8-10.1,8.5-10.6c0.6,0,1.2,0.1,1.6,0.2L74.4,63.4z"/>
<path d="M53.6,71.3c-0.2,0.5-0.7,0.8-1.2,0.8h-7.8v0c-0.4,0-0.8-0.1-1.1-0.3c-0.3-0.2-0.6-0.5-0.7-0.9c-2.4-4.9-4.9-10.2-7.9-16.5
	c-2.5,5.5-5,11.1-7.7,16.6l0,0.1c-0.3,0.6-1,1-1.7,1H18c-0.8,0-1.2-0.5-1.3-0.9c-0.1-0.4,0-0.8,0.2-1.2l12-23.1l-11.6-23
	c-0.3-0.5-0.3-1.1,0-1.5c0.3-0.4,0.7-0.6,1.1-0.6h7.8c0.4,0,0.7,0.1,0.9,0.2c0.4,0.2,0.6,0.5,0.7,1c0.7,1.5,1.5,3.1,2.2,4.6
	c1.8,3.8,3.6,7.6,5.3,11.2c1.7-3.7,3.4-7.4,5.1-11.1c0.5-1.1,2.1-4.6,2.1-4.6v0l0.1-0.2c0.1-0.3,0.3-0.6,0.6-0.8
	c0.3-0.2,0.6-0.4,1.1-0.4h7.3c0.7,0,1,0.4,1.1,0.6c0.3,0.4,0.3,0.9,0,1.4l0,0L41.2,46.2L53.5,70C53.7,70.5,53.8,70.9,53.6,71.3z"/>
<path class="st0" d="M91.6,23.2v51.6c0,7.7-6.2,13.9-13.9,13.9H23.3c-7.7,0-13.9-6.2-13.9-13.9V23.2c0-7.7,6.2-13.9,13.9-13.9h54.4
	C85.4,9.3,91.6,15.5,91.6,23.2z"/>
</svg>
