<svg width="42" height="41" viewBox="0 0 42 41" fill="none" xmlns="http://www.w3.org/2000/svg">
<g clip-path="url(#clip0_1826_3191)">
<path d="M41.7298 7.84341V33.5346C41.7298 37.347 38.6391 40.4426 34.8217 40.4426H7.7569C3.94453 40.4426 0.848846 37.3519 0.848846 33.5346V7.84341C0.848846 4.02607 3.93955 0.935364 7.7569 0.935364H34.8267C38.6391 0.935364 41.7298 4.02607 41.7298 7.84341Z" fill="#D9D9D9" fill-opacity="0.05"/>
<path d="M33.5964 27.215C33.5456 26.6214 33.5165 26.106 33.5165 25.6901V11.1415C33.5165 10.9851 33.4512 10.8856 33.3931 10.8251C33.266 10.6865 33.0736 10.6865 33.0119 10.6865H30.3762C30.2492 10.6865 30.1257 10.7327 30.035 10.8251L30.0205 10.8358C29.9624 10.8998 29.8934 11.01 29.8934 11.1806V14.9448C29.8753 14.9448 29.8571 14.9413 29.839 14.9413C29.7155 14.9377 29.563 14.9342 29.3852 14.9342C27.2832 14.9342 25.6096 15.6202 24.4007 16.9709C23.2063 18.3074 22.6 19.9638 22.6 21.8903C22.6 24.1474 23.2063 25.8642 24.4007 26.991C25.5914 28.1142 27.1343 28.6865 28.9894 28.6865C30.3871 28.6865 31.832 28.3666 33.2769 27.7375C33.4838 27.6699 33.5528 27.5313 33.5782 27.4496L33.5819 27.4247C33.5891 27.3891 33.6 27.3287 33.6 27.2434V27.2292L33.5964 27.215ZM29.8716 25.4342C29.6248 25.4946 29.3597 25.523 29.0911 25.523C28.2706 25.523 27.6026 25.2458 27.0436 24.6806C26.4881 24.1154 26.2086 23.1308 26.2086 21.7517C26.2086 19.3844 27.2215 18.1581 29.3017 17.9981C29.5304 17.9981 29.7264 18.0195 29.8898 18.0586L29.8716 25.4342Z" fill="#D9D9D9" fill-opacity="0.75"/>
<path d="M22.5666 28.3861C22.4948 28.5685 22.3133 28.6829 22.0939 28.6829H19.1403V28.6865C18.9814 28.6865 18.8453 28.6543 18.7318 28.59C18.5995 28.5113 18.5125 28.404 18.4557 28.2609C17.5632 26.5121 16.6064 24.6202 15.4643 22.3491C14.5339 24.3054 13.5582 26.3046 12.5522 28.3003L12.5409 28.3182C12.4085 28.5435 12.1816 28.6686 11.9169 28.6686H9.11072C8.81195 28.6686 8.66067 28.4898 8.61907 28.3325C8.57747 28.193 8.60395 28.0463 8.69849 27.914L13.2292 19.6561L8.83464 11.4304C8.72875 11.248 8.73253 11.0513 8.84977 10.8975C8.95566 10.7652 9.10694 10.6901 9.27712 10.6901H12.2081C12.348 10.6901 12.4615 10.7116 12.5522 10.7545C12.6884 10.8224 12.7754 10.9369 12.8207 11.0978C13.1006 11.6414 13.3842 12.1993 13.6679 12.7573C14.36 14.1163 15.0331 15.4682 15.6723 16.7807C16.3039 15.4503 16.9581 14.1199 17.6199 12.8145C17.809 12.4282 18.4293 11.1693 18.4293 11.1693V11.1586L18.4557 11.0978C18.5087 10.9762 18.5805 10.8832 18.6675 10.8153C18.7659 10.733 18.9058 10.6865 19.0798 10.6865H21.8254C22.0712 10.6865 22.196 10.8117 22.249 10.8868C22.3473 11.0263 22.3511 11.1979 22.2641 11.3982L22.2565 11.4125L17.8582 19.3843L22.5175 27.914C22.6082 28.0893 22.6234 28.243 22.5666 28.3861Z" fill="#D9D9D9" fill-opacity="0.75"/>
</g>
<defs>
<clipPath id="clip0_1826_3191">
<rect width="41.3786" height="40" fill="white" transform="translate(0.600006 0.686523)"/>
</clipPath>
</defs>
</svg>
