<svg width="42" height="41" viewBox="0 0 42 41" fill="none" xmlns="http://www.w3.org/2000/svg">
<g clip-path="url(#clip0_2273_700)">
<path d="M41.5296 7.84347V33.5347C41.5296 37.347 38.4389 40.4427 34.6216 40.4427H7.55673C3.74436 40.4427 0.648682 37.352 0.648682 33.5347V7.84347C0.648682 4.02613 3.73939 0.935425 7.55673 0.935425H34.6265C38.4389 0.935425 41.5296 4.02613 41.5296 7.84347Z" fill="#D9D9D9" fill-opacity="0.02"/>
<path d="M33.3963 27.215C33.3454 26.6214 33.3164 26.106 33.3164 25.6901V11.1415C33.3164 10.9851 33.2511 10.8856 33.193 10.8251C33.0659 10.6865 32.8735 10.6865 32.8118 10.6865H30.1761C30.0491 10.6865 29.9256 10.7327 29.8349 10.8251L29.8204 10.8358C29.7623 10.8998 29.6933 11.01 29.6933 11.1806V14.9448C29.6751 14.9448 29.657 14.9413 29.6388 14.9413C29.5154 14.9377 29.3629 14.9342 29.1851 14.9342C27.0831 14.9342 25.4095 15.6202 24.2006 16.9709C23.0062 18.3074 22.3999 19.9638 22.3999 21.8903C22.3999 24.1474 23.0062 25.8643 24.2006 26.991C25.3913 28.1143 26.9342 28.6865 28.7893 28.6865C30.187 28.6865 31.6319 28.3666 33.0768 27.7375C33.2837 27.6699 33.3527 27.5313 33.3781 27.4496L33.3818 27.4247C33.389 27.3891 33.3999 27.3287 33.3999 27.2434V27.2292L33.3963 27.215ZM29.6715 25.4342C29.4247 25.4946 29.1596 25.523 28.891 25.523C28.0705 25.523 27.4025 25.2458 26.8435 24.6806C26.288 24.1154 26.0085 23.1308 26.0085 21.7517C26.0085 19.3844 27.0214 18.1581 29.1016 17.9981C29.3303 17.9981 29.5263 18.0195 29.6897 18.0586L29.6715 25.4342Z" fill="#8E8E93"/>
<path d="M22.3665 28.3861C22.2947 28.5685 22.1132 28.6829 21.8938 28.6829H18.9402V28.6865C18.7813 28.6865 18.6452 28.6543 18.5317 28.59C18.3994 28.5113 18.3124 28.404 18.2556 28.2609C17.3631 26.5121 16.4063 24.6202 15.2642 22.3491C14.3338 24.3054 13.3581 26.3046 12.3521 28.3003L12.3408 28.3182C12.2084 28.5435 11.9815 28.6686 11.7168 28.6686H8.91061C8.61185 28.6686 8.46057 28.4898 8.41897 28.3325C8.37737 28.193 8.40384 28.0463 8.49839 27.914L13.0291 19.6561L8.63454 11.4304C8.52864 11.248 8.53243 11.0513 8.64966 10.8975C8.75556 10.7652 8.90683 10.6901 9.07702 10.6901H12.008C12.1479 10.6901 12.2614 10.7116 12.3521 10.7545C12.4883 10.8224 12.5753 10.9369 12.6206 11.0978C12.9005 11.6414 13.1841 12.1993 13.4678 12.7573C14.1599 14.1163 14.833 15.4682 15.4722 16.7807C16.1037 15.4503 16.758 14.1199 17.4198 12.8145C17.6089 12.4282 18.2292 11.1693 18.2292 11.1693V11.1586L18.2556 11.0978C18.3086 10.9762 18.3804 10.8832 18.4674 10.8153C18.5658 10.733 18.7057 10.6865 18.8796 10.6865H21.6253C21.8711 10.6865 21.9959 10.8117 22.0489 10.8868C22.1472 11.0263 22.151 11.1979 22.064 11.3982L22.0564 11.4125L17.6581 19.3843L22.3174 27.914C22.4081 28.0893 22.4233 28.243 22.3665 28.3861Z" fill="#8E8E93"/>
</g>
<defs>
<clipPath id="clip0_2273_700">
<rect width="41.3786" height="40" fill="white" transform="translate(0.399902 0.686523)"/>
</clipPath>
</defs>
</svg>
