<svg width="84" height="100" viewBox="0 0 84 100" fill="none" xmlns="http://www.w3.org/2000/svg">
<path d="M13.6111 92.3611V7.5C11.7593 7.96296 10.3241 8.84259 9.3056 10.1389C8.28707 11.4352 7.77782 13.0556 7.77782 15V84.8611C7.77782 86.8056 8.28707 88.4259 9.3056 89.7222C10.3241 91.0185 11.7593 91.8982 13.6111 92.3611ZM75.8334 100C77.8473 100 79.6007 99.2535 81.0938 97.7604C82.5868 96.2674 83.3334 94.5139 83.3334 92.5V7.5C83.3334 5.48611 82.5868 3.73264 81.0938 2.23958C79.6007 0.746528 77.8473 0 75.8334 0H25.8334C23.8195 0 22.066 0.746528 20.573 2.23958C19.0799 3.73264 18.3334 5.48611 18.3334 7.5V92.5C18.3334 94.5139 19.0799 96.2674 20.573 97.7604C22.066 99.2535 23.8195 100 25.8334 100H75.8334ZM3.0556 84.8611V15.1389C2.03707 15.5093 1.27319 16.088 0.763924 16.875C0.254669 17.662 3.8147e-05 18.6574 3.8147e-05 19.8611V80.1389C3.8147e-05 81.3426 0.254669 82.3148 0.763924 83.0556C1.27319 83.7963 2.03707 84.3982 3.0556 84.8611ZM75.8334 96.9445H25.8334C24.7223 96.9445 23.7037 96.4815 22.7778 95.5556C21.8519 94.6296 21.3889 93.6111 21.3889 92.5V7.5C21.3889 6.38889 21.8519 5.37037 22.7778 4.44444C23.7037 3.51852 24.7223 3.05556 25.8334 3.05556H75.8334C76.9445 3.05556 77.963 3.51852 78.8889 4.44444C79.8149 5.37037 80.2778 6.38889 80.2778 7.5V92.5C80.2778 93.6111 79.8149 94.6296 78.8889 95.5556C77.963 96.4815 76.9445 96.9445 75.8334 96.9445Z" fill="#D9D9D9" fill-opacity="0.75"/>
</svg>
