<svg width="152" height="182" viewBox="0 0 152 182" fill="none" xmlns="http://www.w3.org/2000/svg">
<path d="M124.592 121.051L147.331 160.371H121.445L107.268 181.094L81.7167 137.487" stroke="black" stroke-miterlimit="10" stroke-linecap="round" stroke-linejoin="round"/>
<path d="M27.2797 121.051L4.54089 160.371H30.4266L44.6036 181.094L70.1551 137.487" stroke="black" stroke-miterlimit="10" stroke-linecap="round" stroke-linejoin="round"/>
<path d="M76 112.52C98.188 112.52 116.175 94.843 116.175 73.0376C116.175 51.2322 98.188 33.5554 76 33.5554C53.8121 33.5554 35.8252 51.2322 35.8252 73.0376C35.8252 94.843 53.8121 112.52 76 112.52Z" stroke="black" stroke-miterlimit="10" stroke-linecap="round" stroke-linejoin="round"/>
<path d="M151 72.6582C151 80.1294 138.558 85.5332 136.375 92.2736C134.106 99.2544 140.913 110.927 136.683 116.745C132.413 122.62 119.173 119.735 113.308 124.004C107.49 128.235 106.173 141.735 99.1923 144.004C92.4519 146.197 83.4808 136.12 76.0096 136.12C68.5385 136.12 59.5673 146.197 52.8269 144.004C45.8462 141.735 44.5192 128.235 38.7115 124.004C32.8365 119.735 19.6058 122.62 15.3365 116.745C11.1058 110.927 17.9135 99.2544 15.6442 92.2736C13.4423 85.5428 1 80.1294 1 72.6582C1 65.1871 13.4423 59.7832 15.625 53.0428C17.8942 46.0621 11.0865 34.389 15.3173 28.5717C19.5865 22.6967 32.8269 25.5813 38.6923 21.3121C44.5096 17.0813 45.8269 3.5813 52.8077 1.31207C59.5481 -0.880238 68.5192 9.19669 75.9904 9.19669C83.4615 9.19669 92.4327 -0.880238 99.1731 1.31207C106.154 3.5813 107.481 17.0813 113.288 21.3121C119.163 25.5813 132.394 22.6967 136.663 28.5717C140.894 34.389 134.087 46.0621 136.356 53.0428C138.558 59.7832 151 65.1967 151 72.6582Z" stroke="black" stroke-miterlimit="10" stroke-linecap="round" stroke-linejoin="round"/>
</svg>
