<svg width="133" height="100" viewBox="0 0 133 100" fill="none" xmlns="http://www.w3.org/2000/svg">
<path d="M15.5894 93.7262V10.2662C15.5894 7.37959 16.5788 4.94689 18.5576 2.96806C20.5363 0.989354 22.9689 0 25.8555 0H127.947C128.539 0 129.036 0.204568 129.437 0.613693C129.838 1.02282 130.038 1.52979 130.038 2.13461C130.038 2.73942 129.838 3.23194 129.437 3.61217C129.036 3.9924 128.539 4.18251 127.947 4.18251H25.8555C24.0811 4.18251 22.6236 4.75285 21.4829 5.89354C20.3422 7.03422 19.7719 8.49176 19.7719 10.2662V93.7262H57.0342C57.8792 93.7262 58.5974 94.0285 59.1888 94.6331C59.7803 95.2375 60.076 95.9715 60.076 96.8352C60.076 97.7515 59.7803 98.5081 59.1888 99.1049C58.5974 99.7016 57.8792 100 57.0342 100H3.23194C2.33422 100 1.5711 99.6869 0.942584 99.0606C0.314194 98.4344 0 97.674 0 96.7793C0 95.8846 0.314194 95.1521 0.942584 94.5817C1.5711 94.0114 2.33422 93.7262 3.23194 93.7262H15.5894ZM94.6768 100C93.1686 100 91.9043 99.4899 90.884 98.4696C89.8637 97.4493 89.3536 96.1217 89.3536 94.4867V31.1787C89.3536 29.6705 89.8637 28.4062 90.884 27.3859C91.9043 26.3657 93.1686 25.8555 94.6768 25.8555H126.806C128.568 25.8555 129.99 26.3657 131.074 27.3859C132.158 28.4062 132.7 29.6705 132.7 31.1787V94.4867C132.7 96.1217 132.158 97.4493 131.074 98.4696C129.99 99.4899 128.568 100 126.806 100H94.6768ZM93.5361 93.7262H128.517V30.038H93.5361V93.7262Z" fill="#D9D9D9" fill-opacity="0.75"/>
</svg>
