<svg width="247" height="245" viewBox="0 0 247 245" fill="none" xmlns="http://www.w3.org/2000/svg">
<g clip-path="url(#clip0_1267_1658)">
<path d="M110 224.49L104.53 244.87L98.3499 243.21L96.2699 231.89L95.6299 226.6L95.2999 226.51L92.1599 230.79L84.8399 239.59L78.6299 237.92L84.0999 217.54L88.6599 218.76L85.8799 229.1L84.8699 232.25L85.1999 232.34L87.2399 229.46L93.9499 221.47L99.4899 222.96L101.3 233.23L101.63 236.74L101.96 236.83L102.63 233.59L105.41 223.25L110 224.49Z" fill="black"/>
<path d="M81.5099 215.87L71.2199 234.29L55.6299 225.58L57.6999 221.87L69.1699 228.28L71.1799 224.68L60.1299 218.5L62.1899 214.82L73.2399 221L75.3099 217.29L63.8399 210.88L65.9099 207.17L81.5099 215.87Z" fill="black"/>
<path d="M63.5501 205.61L49.5501 221.41L45.7801 218.07L46.7401 205.58L47.5201 200.33L47.2601 200.1L44.6101 203.43L37.8601 211.05L34.3201 207.92L48.3201 192.13L52.0901 195.47L51.2301 208.17L50.6001 212.92L50.8401 213.13L53.2701 210.1L60.0201 202.49L63.5501 205.61Z" fill="black"/>
<path d="M39.1101 195.01L29.0901 202.12L26.3601 198.27L36.1001 191.36C39.0301 189.28 39.3001 187.43 36.8201 183.94C34.3201 180.42 32.5101 180.09 29.5801 182.16L19.8401 189.07L17.1101 185.22L27.1301 178.11C31.7501 174.83 36.5901 175.65 40.5801 181.28C44.5401 186.87 43.7401 191.73 39.1101 195.01Z" fill="black"/>
<path d="M22.3599 164.23L18.5299 165.58L14.6399 154.49L18.4699 153.14L22.3599 164.23Z" fill="black"/>
<path d="M22.4301 138.57L1.38011 140.07L0.110107 122.26L4.35011 121.96L5.29011 135.06L9.41011 134.77L8.51011 122.14L12.7201 121.84L13.6201 134.47L17.8601 134.17L16.9201 121.07L21.1601 120.77L22.4301 138.57Z" fill="black"/>
<path d="M20.88 119.34L11.78 109.67L11.44 109.62L0 116.22L0.91 110.11L9.23 105.36L9.28 105.02L2.68 98.2699L3.59 92.1599L12.69 101.8L13.03 101.85L24.46 95.2799L23.55 101.39L15.14 106.09L15.09 106.43L21.78 113.23L20.88 119.34Z" fill="black"/>
<path d="M25.2401 93.7101L5.59009 86.0001L9.62009 75.7401C11.4001 71.2001 15.1301 69.2701 19.6501 71.0501C24.1701 72.8201 25.6301 76.7801 23.8401 81.3201L21.5401 87.1901L26.9701 89.3201L25.2401 93.7101ZM11.2801 83.1501L17.5901 85.6201L19.7101 80.2201C20.6701 77.7901 20.4101 76.3701 17.9501 75.4001C15.5401 74.4601 14.3601 75.3101 13.4101 77.7501L11.2801 83.1501Z" fill="black"/>
<path d="M33.45 73.9201L15.76 62.4001L18.34 58.4401L32.46 67.6301L39.32 57.1001L42.88 59.4201L33.45 73.9201Z" fill="black"/>
<path d="M36.63 50.09C32.02 45.39 32.13 39.29 37.12 34.39C42.23 29.39 48.31 29.42 52.91 34.12C57.52 38.82 57.44 44.9 52.33 49.91C47.34 54.8 41.24 54.79 36.63 50.09ZM49.31 37.65C46.02 34.3 43.6 34.39 40.29 37.63C36.98 40.87 36.92 43.23 40.2 46.58C43.49 49.93 45.85 49.91 49.15 46.67C52.46 43.43 52.6 41 49.31 37.65Z" fill="black"/>
<path d="M62.5401 40.1698L51.6201 22.1198L61.5901 16.0798C66.0401 13.3898 69.7601 13.8198 71.8501 17.2698C73.6301 20.2098 72.9901 22.9898 69.7901 25.3598L69.9201 25.5798C71.8001 25.0298 72.9401 25.5198 74.3801 26.3798L79.9301 29.6498L75.2401 32.4898L69.9201 29.2998C68.3401 28.3398 67.3901 28.2898 65.2901 29.5598L62.6201 31.1698L66.5801 37.7198L62.5401 40.1698ZM60.7801 28.1298L66.6801 24.5598C68.5901 23.3998 69.1301 22.3398 67.9901 20.4498C66.9101 18.6698 65.6801 18.5698 63.7601 19.7298L57.8601 23.2998L60.7801 28.1298Z" fill="black"/>
<path d="M81.9801 28.9099L75.0901 8.95988L91.9701 3.12988L93.3601 7.14988L80.9501 11.4399L82.3001 15.3399L94.2701 11.2099L95.6501 15.1999L83.6801 19.3299L85.0701 23.3499L97.4801 19.0599L98.8701 23.0799L81.9801 28.9099Z" fill="black"/>
<path d="M110.33 13.85L110.06 9.80002L121.78 9.02002L122.05 13.07L110.33 13.85Z" fill="black"/>
<path d="M135.21 20.63L139.68 0L149.63 2.15C156.25 3.58 159.6 8.34 158.2 14.81C156.8 21.28 151.78 24.22 145.16 22.78L135.21 20.63ZM143.4 5.16L140.73 17.48L146.06 18.63C150.25 19.54 152.2 18.7 153.27 13.74C154.34 8.78 152.91 7.22 148.72 6.31L143.4 5.16Z" fill="black"/>
<path d="M157.17 25.33L174.77 10.46L180.82 13.43L179.85 36.47L174.99 34.08L175.27 29.02L165.8 24.36L161.93 27.65L157.17 25.33ZM169.3 21.36L175.49 24.4L175.74 19.4L176.03 15.89L175.72 15.74L173.12 18.11L169.3 21.36Z" fill="black"/>
<path d="M181.09 37.65L194.62 21.46L198.49 24.69L197.89 37.2L197.27 42.46L197.54 42.68L200.1 39.28L206.62 31.47L210.25 34.5L196.72 50.69L192.85 47.46L193.34 34.74L193.83 29.98L193.59 29.78L191.25 32.87L184.73 40.68L181.09 37.65Z" fill="black"/>
<path d="M199.04 53.14L215.92 40.47L222.03 48.61C226.09 54.03 225.52 59.82 220.23 63.79C214.94 67.76 209.22 66.7 205.15 61.28L199.04 53.14ZM215.35 46.8L205.27 54.36L208.54 58.72C211.11 62.15 213.13 62.79 217.19 59.75C221.25 56.71 221.19 54.58 218.62 51.16L215.35 46.8Z" fill="black"/>
<path d="M212.8 73.0199L231.48 63.1899L233.68 67.3699L215 77.1999L212.8 73.0199Z" fill="black"/>
<path d="M220.08 89.36L240.2 82.97L241.63 87.47L221.51 93.86L220.08 89.36Z" fill="black"/>
<path d="M222.83 97.0798L243.69 93.8198L245.49 105.34C246.29 110.48 244.48 113.76 240.49 114.38C237.1 114.91 234.77 113.27 233.78 109.4L233.53 109.44C233.32 111.39 232.44 112.26 231.1 113.26L225.97 117.16L225.12 111.74L230.09 108.03C231.58 106.94 231.99 106.08 231.61 103.65L231.13 100.57L223.57 101.75L222.83 97.0798ZM234.64 100.01L235.71 106.83C236.06 109.04 236.83 109.94 239.01 109.6C241.06 109.28 241.62 108.17 241.28 105.96L240.21 99.1398L234.64 100.01Z" fill="black"/>
<path d="M226.21 117.83L246.54 128.65L246.02 135.37L224.27 143.02L224.68 137.62L229.48 136L230.29 125.48L225.8 123.11L226.21 117.83ZM234.4 127.61L233.87 134.49L238.61 132.86L241.97 131.82L242 131.48L238.83 129.94L234.4 127.61Z" fill="black"/>
<path d="M222.95 148.41L244.43 151.43L242.51 156.36L230.43 154.4L225.85 153.4L225.72 153.72L229.68 156.31L239.56 163.94L237.01 170.49L224.59 169.41L219.92 168.64L219.79 168.96L223.84 171.32L234.07 178.04L232.2 182.86L214.35 170.53L216.9 163.98L227.88 164.87L234.08 165.7L234.21 165.38L229.08 161.79L220.41 154.97L222.95 148.41Z" fill="black"/>
<path d="M211.68 175.4L222.6 195.68L218.44 200.99L196.1 195.29L199.44 191.03L204.33 192.34L210.84 184.03L208.41 179.57L211.68 175.4ZM213.06 188.09L208.81 193.52L213.65 194.79L217.03 195.79L217.24 195.52L215.46 192.48L213.06 188.09Z" fill="black"/>
<path d="M194.69 196.29L207.77 212.85L203.81 215.97L191.69 212.82L186.66 211.13L186.39 211.34L189.2 214.54L195.5 222.52L191.79 225.45L178.71 208.89L182.67 205.77L195.02 208.86L199.58 210.32L199.83 210.12L197.28 207.2L190.98 199.22L194.69 196.29Z" fill="black"/>
<path d="M167.63 214.95L174.99 234.73L164.66 238.58C160.08 240.28 156.16 238.78 154.47 234.24C152.78 229.69 154.75 225.97 159.33 224.26L165.24 222.06L163.21 216.6L167.63 214.95ZM169.08 232.4L166.72 226.05L161.29 228.07C158.84 228.98 157.95 230.12 158.87 232.6C159.77 235.02 161.2 235.33 163.65 234.42L169.08 232.4Z" fill="black"/>
<path d="M138.95 230.85L139.3 234.9L127.59 235.91L127.24 231.86L138.95 230.85Z" fill="black"/>
</g>
<defs>
<clipPath id="clip0_1267_1658">
<rect width="247" height="245" fill="white"/>
</clipPath>
</defs>
</svg>
