<svg width="169" height="100" viewBox="0 0 169 100" fill="none" xmlns="http://www.w3.org/2000/svg">
<path d="M118.966 100C105.747 100 94.3966 95.5939 84.9138 86.7816C75.431 77.9693 70.0192 66.7625 68.6782 53.1609H0V46.8391H68.6897C69.4483 39.5594 71.8391 32.1839 75.8621 24.7126C79.8851 17.2414 85.728 11.1111 93.3908 6.32184H22.9885V0H118.966C132.799 0 144.591 4.87088 154.341 14.6126C164.091 24.3542 168.966 36.1358 168.966 49.9575C168.966 63.7789 164.091 75.5747 154.341 85.3448C144.591 95.1149 132.799 100 118.966 100ZM118.898 93.6782C131.012 93.6782 141.331 89.4382 149.856 80.9583C158.381 72.4786 162.644 62.1817 162.644 50.0675C162.644 37.9535 158.404 27.6341 149.924 19.1092C141.444 10.5843 131.147 6.32184 119.033 6.32184C106.919 6.32184 96.5996 10.5618 88.0747 19.0417C79.5498 27.5214 75.2874 37.8183 75.2874 49.9325C75.2874 62.0465 79.5273 72.3659 88.0072 80.8908C96.4869 89.4157 106.784 93.6782 118.898 93.6782ZM34.4828 100V93.6782H54.023V100H34.4828Z" fill="#D9D9D9" fill-opacity="0.75"/>
</svg>
