<svg width="100" height="100" viewBox="0 0 100 100" fill="none" xmlns="http://www.w3.org/2000/svg">
<path d="M4.04192 40.5689C2.89671 40.5689 1.93673 40.1815 1.16198 39.4067C0.387324 38.6321 0 37.6722 0 36.5269V4.04192C0 2.89671 0.387324 1.93678 1.16198 1.16213C1.93673 0.387375 2.89671 0 4.04192 0H36.5269C37.6722 0 38.6321 0.387375 39.4067 1.16213C40.1815 1.93678 40.5689 2.89671 40.5689 4.04192V36.5269C40.5689 37.6722 40.1815 38.6321 39.4067 39.4067C38.6321 40.1815 37.6722 40.5689 36.5269 40.5689H4.04192ZM63.4731 40.5689C62.3278 40.5689 61.3679 40.1815 60.5933 39.4067C59.8185 38.6321 59.4311 37.6722 59.4311 36.5269V4.04192C59.4311 2.89671 59.8185 1.93678 60.5933 1.16213C61.3679 0.387375 62.3278 0 63.4731 0H95.9581C97.1033 0 98.0632 0.387375 98.8379 1.16213C99.6126 1.93678 100 2.89671 100 4.04192V36.5269C100 37.6722 99.6126 38.6321 98.8379 39.4067C98.0632 40.1815 97.1033 40.5689 95.9581 40.5689H63.4731ZM4.04192 100C2.89671 100 1.93673 99.6127 1.16198 98.838C0.387324 98.0633 0 97.1033 0 95.9581V63.4731C0 62.3278 0.387324 61.3679 1.16198 60.5933C1.93673 59.8185 2.89671 59.4311 4.04192 59.4311H36.5269C37.6722 59.4311 38.6321 59.8185 39.4067 60.5933C40.1815 61.3679 40.5689 62.3278 40.5689 63.4731V95.9581C40.5689 97.1033 40.1815 98.0633 39.4067 98.838C38.6321 99.6127 37.6722 100 36.5269 100H4.04192ZM79.684 100C79.2559 100 78.8922 99.8422 78.5928 99.5265C78.2934 99.2109 78.1437 98.8199 78.1437 98.3533V81.2874H60.9281C60.5289 81.2874 60.1796 81.1266 59.8802 80.8049C59.5808 80.4833 59.4311 80.0847 59.4311 79.6091C59.4311 79.231 59.5889 78.8673 59.9045 78.518C60.2202 78.1687 60.6113 77.994 61.0778 77.994H78.1437V60.9281C78.1437 60.5289 78.3045 60.1796 78.6262 59.8802C78.9479 59.5808 79.3465 59.4311 79.822 59.4311C80.2001 59.4311 80.5639 59.5889 80.9132 59.9045C81.2625 60.2202 81.4371 60.6113 81.4371 61.0778V77.994H98.503C98.9022 77.994 99.2515 78.1792 99.5509 78.5496C99.8503 78.9198 100 79.319 100 79.7472C100 80.1752 99.8422 80.5389 99.5266 80.8383C99.211 81.1377 98.8199 81.2874 98.3533 81.2874H81.4371V98.503C81.4371 98.9022 81.2519 99.2515 80.8816 99.5509C80.5113 99.8503 80.1121 100 79.684 100ZM62.7245 3.29341V37.2754H96.7066V3.29341H62.7245ZM3.29341 3.29341V37.2754H37.2754V3.29341H3.29341ZM3.29341 62.7245V96.7066H37.2754V62.7245H3.29341Z" fill="#D9D9D9" fill-opacity="0.75"/>
</svg>
